<svg xmlns="http://www.w3.org/2000/svg" width="358.194" height="436" viewBox="0 0 358.194 436">
  <g id="Grupo_86863" data-name="Grupo 86863" transform="translate(-1020 -4136)">
    <rect id="Rectángulo_34956" data-name="Rectángulo 34956" width="304" height="436" transform="translate(1047 4136)" fill="#88d2b0"/>
    <g id="Grupo_86623" data-name="Grupo 86623" transform="translate(961.938 4101.697)">
      <g id="Grupo_86606" data-name="Grupo 86606" transform="translate(84.225 293.927)">
        <path id="Trazado_139744" data-name="Trazado 139744" d="M86.1,392.68l6-46.395a18.676,18.676,0,0,1,7.191-12.451L128.557,311.5l15.863,50.387-36.391,40.59Z" transform="translate(-86.101 -311.5)" fill="#f6b381"/>
        <path id="Trazado_139745" data-name="Trazado 139745" d="M118.682,337.726l-9.9,8.131a2.359,2.359,0,0,0-.788,2.409l7.3,28.436a2.359,2.359,0,0,0,4.141.87l14.652-18.68a2.361,2.361,0,0,0,.1-2.775L122.135,338.23A2.359,2.359,0,0,0,118.682,337.726Z" transform="translate(-87.561 -313.219)" fill="#f6906b"/>
      </g>
      <g id="Grupo_86607" data-name="Grupo 86607" transform="translate(331.775 293.927)">
        <path id="Trazado_139746" data-name="Trazado 139746" d="M409.718,392.68l-6-46.395a18.676,18.676,0,0,0-7.191-12.451L367.262,311.5,351.4,361.887l36.391,40.59Z" transform="translate(-351.399 -311.5)" fill="#f6b381"/>
        <path id="Trazado_139747" data-name="Trazado 139747" d="M379.406,337.726l9.9,8.131a2.355,2.355,0,0,1,.788,2.409l-7.3,28.436a2.359,2.359,0,0,1-4.141.87L364,358.892a2.361,2.361,0,0,1-.1-2.775l12.055-17.887A2.359,2.359,0,0,1,379.406,337.726Z" transform="translate(-352.208 -313.219)" fill="#f6906b"/>
      </g>
      <g id="Grupo_86616" data-name="Grupo 86616" transform="translate(118.095 48.816)">
        <g id="Grupo_86609" data-name="Grupo 86609">
          <path id="Trazado_139748" data-name="Trazado 139748" d="M253.395,74.687h-3.779a7.182,7.182,0,0,1,0-14.364h3.779a7.182,7.182,0,0,1,0,14.364Zm2.16-22.572h-8.1a15.39,15.39,0,1,0,0,30.779h8.1a15.39,15.39,0,0,0,0-30.779Z" transform="translate(-129.736 -49.037)" fill="#e4863d"/>
          <rect id="Rectángulo_34937" data-name="Rectángulo 34937" width="243.539" height="320.987" rx="10.167" transform="translate(0 28.304)" fill="#6e1c0c"/>
          <rect id="Rectángulo_34938" data-name="Rectángulo 34938" width="243.539" height="315.077" rx="10.073" transform="translate(0 28.304)" fill="#df784f"/>
          <rect id="Rectángulo_34939" data-name="Rectángulo 34939" width="198.75" height="275.686" transform="translate(22.394 48.489)" fill="#f3eedd"/>
          <path id="Rectángulo_34940" data-name="Rectángulo 34940" d="M0,0H198.75a0,0,0,0,1,0,0V1.971a3.083,3.083,0,0,1-3.083,3.083H0a0,0,0,0,1,0,0V0A0,0,0,0,1,0,0Z" transform="translate(22.394 324.175)" fill="#c96440"/>
          <rect id="Rectángulo_34941" data-name="Rectángulo 34941" width="198.75" height="273.12" transform="translate(22.394 48.489)" fill="#fff"/>
          <path id="Trazado_139749" data-name="Trazado 139749" d="M256.086,48.816h-9.719a18.467,18.467,0,1,0,0,36.935h9.719a18.467,18.467,0,1,0,0-36.935ZM253.495,75.9h-4.536a8.618,8.618,0,1,1,0-17.236h4.536a8.618,8.618,0,1,1,0,17.236Z" transform="translate(-129.457 -48.816)" fill="#f6a737"/>
          <g id="Grupo_86608" data-name="Grupo 86608" transform="translate(48.754 19.439)">
            <rect id="Rectángulo_34942" data-name="Rectángulo 34942" width="146.03" height="11.081" transform="translate(0 29.043)" fill="#ddd9d1"/>
            <path id="Rectángulo_34943" data-name="Rectángulo 34943" d="M4.25,0H141.78a4.25,4.25,0,0,1,4.25,4.25V14.813a0,0,0,0,1,0,0H0a0,0,0,0,1,0,0V4.25A4.25,4.25,0,0,1,4.25,0Z" transform="translate(0 13.997)" fill="#6e1c0c"/>
            <path id="Rectángulo_34944" data-name="Rectángulo 34944" d="M9.75,0H125.083a9.75,9.75,0,0,1,9.75,9.75V34.991a0,0,0,0,1,0,0H0a0,0,0,0,1,0,0V9.75A9.75,9.75,0,0,1,9.75,0Z" transform="translate(5.599 0)" fill="#ffcb5a"/>
            <rect id="Rectángulo_34945" data-name="Rectángulo 34945" width="134.833" height="10.731" transform="translate(5.599 24.261)" fill="#f6a737"/>
            <rect id="Rectángulo_34946" data-name="Rectángulo 34946" width="41.523" height="10.731" rx="5.365" transform="translate(52.254 24.261)" fill="#ffe1a1"/>
            <rect id="Rectángulo_34947" data-name="Rectángulo 34947" width="21.345" height="10.731" rx="5.365" transform="translate(107.307 24.261)" fill="#e4863d"/>
            <path id="Trazado_139750" data-name="Trazado 139750" d="M234.057,76.414H203.031a3.383,3.383,0,0,1-3.382-3.382h0a3.383,3.383,0,0,1,3.382-3.382h31.026a3.383,3.383,0,0,1,3.382,3.382h0A3.383,3.383,0,0,1,234.057,76.414Z" transform="translate(-176.322 -69.649)" fill="#ffe1a1"/>
          </g>
          <path id="Trazado_139751" data-name="Trazado 139751" d="M288.232,422.725H246.1a2.954,2.954,0,0,1-2.955-2.954h0a2.955,2.955,0,0,1,2.955-2.955h42.128a2.955,2.955,0,0,1,2.955,2.955h0A2.954,2.954,0,0,1,288.232,422.725Z" transform="translate(-130.477 -73.435)" fill="#a84c2a"/>
          <path id="Trazado_139752" data-name="Trazado 139752" d="M172.618,422.725H149.572a2.954,2.954,0,0,1-2.955-2.954h0a2.955,2.955,0,0,1,2.955-2.955h23.046a2.955,2.955,0,0,1,2.955,2.955h0A2.954,2.954,0,0,1,172.618,422.725Z" transform="translate(-124.019 -73.435)" fill="#b74c01"/>
          <path id="Trazado_139753" data-name="Trazado 139753" d="M255.486,54.609h-4.9a2.9,2.9,0,0,1-2.9-2.9h0a2.9,2.9,0,0,1,2.9-2.9h4.9a2.9,2.9,0,0,1,2.9,2.9h0A2.9,2.9,0,0,1,255.486,54.609Z" transform="translate(-130.781 -48.816)" fill="#ffcb5a"/>
        </g>
        <text id="REGISTRATION" transform="translate(40.901 92.619)" fill="#4f577f" font-size="16" font-family="Roboto-BoldCondensed, Roboto" font-weight="700" letter-spacing="0.08em"><tspan x="0" y="0">REGISTRATION</tspan></text>
        <path id="Trazado_139754" data-name="Trazado 139754" d="M256.44,171.947H169.956a3.723,3.723,0,0,1-3.723-3.723h0a3.723,3.723,0,0,1,3.723-3.724H256.44a3.724,3.724,0,0,1,3.724,3.724h0A3.724,3.724,0,0,1,256.44,171.947Z" transform="translate(-125.332 -56.555)" fill="#acaab1"/>
        <path id="Trazado_139755" data-name="Trazado 139755" d="M330.888,171.947H278.539a3.724,3.724,0,0,1-3.723-3.723h0a3.724,3.724,0,0,1,3.723-3.724h52.349a3.724,3.724,0,0,1,3.724,3.724h0A3.724,3.724,0,0,1,330.888,171.947Z" transform="translate(-132.596 -56.555)" fill="#d4d6d9"/>
        <path id="Trazado_139756" data-name="Trazado 139756" d="M269.037,189.373H169.956a3.723,3.723,0,0,1-3.723-3.723h0a3.723,3.723,0,0,1,3.723-3.724h99.081a3.724,3.724,0,0,1,3.724,3.724h0A3.723,3.723,0,0,1,269.037,189.373Z" transform="translate(-125.332 -57.721)" fill="#acaab1"/>
        <path id="Trazado_139757" data-name="Trazado 139757" d="M331.88,189.373H293.373a3.723,3.723,0,0,1-3.724-3.723h0a3.724,3.724,0,0,1,3.724-3.724H331.88a3.724,3.724,0,0,1,3.724,3.724h0A3.723,3.723,0,0,1,331.88,189.373Z" transform="translate(-133.588 -57.721)" fill="#acaab1"/>
        <path id="Trazado_139758" data-name="Trazado 139758" d="M256.44,206.8H169.956a3.723,3.723,0,0,1-3.723-3.723h0a3.723,3.723,0,0,1,3.723-3.724H256.44a3.724,3.724,0,0,1,3.724,3.724h0A3.723,3.723,0,0,1,256.44,206.8Z" transform="translate(-125.332 -58.887)" fill="#d4d6d9"/>
        <path id="Trazado_139759" data-name="Trazado 139759" d="M330.888,206.8H278.539a3.723,3.723,0,0,1-3.723-3.723h0a3.724,3.724,0,0,1,3.723-3.724h52.349a3.724,3.724,0,0,1,3.724,3.724h0A3.723,3.723,0,0,1,330.888,206.8Z" transform="translate(-132.596 -58.887)" fill="#acaab1"/>
        <g id="Grupo_86611" data-name="Grupo 86611" transform="translate(40.901 166.14)">
          <g id="Grupo_86610" data-name="Grupo 86610" transform="translate(0 0)">
            <path id="Trazado_139760" data-name="Trazado 139760" d="M281.981,239.8h-81.4a3.016,3.016,0,0,1-3.017-3.017h0a3.017,3.017,0,0,1,3.017-3.017h81.4A3.017,3.017,0,0,1,285,236.781h0A3.016,3.016,0,0,1,281.981,239.8Z" transform="translate(-168.329 -227.329)" fill="#4f577f"/>
            <path id="Trazado_139761" data-name="Trazado 139761" d="M232.993,229.885H199.074a1.509,1.509,0,0,1-1.508-1.509h0a1.508,1.508,0,0,1,1.508-1.508h33.919a1.508,1.508,0,0,1,1.508,1.508h0A1.509,1.509,0,0,1,232.993,229.885Z" transform="translate(-168.329 -226.868)" fill="#5e99b1"/>
            <path id="Trazado_139762" data-name="Trazado 139762" d="M326.427,251.849H200.583a3.017,3.017,0,0,1-3.017-3.017h0a3.017,3.017,0,0,1,3.017-3.017H326.427a3.017,3.017,0,0,1,3.017,3.017h0A3.017,3.017,0,0,1,326.427,251.849Z" transform="translate(-168.329 -228.135)" fill="#acaab1"/>
            <path id="Trazado_139763" data-name="Trazado 139763" d="M324.331,263.9H169.249a3.016,3.016,0,0,1-3.016-3.016h0a3.016,3.016,0,0,1,3.016-3.017H324.331a3.016,3.016,0,0,1,3.017,3.017h0A3.016,3.016,0,0,1,324.331,263.9Z" transform="translate(-166.233 -228.942)" fill="#acaab1"/>
            <rect id="Rectángulo_34948" data-name="Rectángulo 34948" width="23.885" height="23.885" rx="3.865" fill="#d4d6d9"/>
          </g>
          <path id="Trazado_139764" data-name="Trazado 139764" d="M176.171,246.344c-.049,0-.1,0-.148,0a2.333,2.333,0,0,1-1.667-.864l-3.3-4.1a2.332,2.332,0,1,1,3.633-2.926l1.706,2.116,6.049-5.8a2.332,2.332,0,1,1,3.229,3.366l-7.885,7.567A2.334,2.334,0,0,1,176.171,246.344Z" transform="translate(-166.521 -227.352)" fill="#3b9674"/>
        </g>
        <g id="Grupo_86613" data-name="Grupo 86613" transform="translate(40.901 217.149)">
          <g id="Grupo_86612" data-name="Grupo 86612">
            <path id="Trazado_139765" data-name="Trazado 139765" d="M304.958,294.464H200.583a3.017,3.017,0,0,1-3.017-3.017h0a3.017,3.017,0,0,1,3.017-3.017H304.958a3.017,3.017,0,0,1,3.016,3.017h0A3.017,3.017,0,0,1,304.958,294.464Z" transform="translate(-168.329 -281.995)" fill="#4f577f"/>
            <path id="Trazado_139766" data-name="Trazado 139766" d="M232.993,284.551H199.074a1.508,1.508,0,0,1-1.508-1.508h0a1.509,1.509,0,0,1,1.508-1.509h33.919a1.509,1.509,0,0,1,1.508,1.509h0A1.508,1.508,0,0,1,232.993,284.551Z" transform="translate(-168.329 -281.534)" fill="#5e99b1"/>
            <rect id="Rectángulo_34949" data-name="Rectángulo 34949" width="131.878" height="6.033" rx="3.016" transform="translate(29.237 17.681)" fill="#acaab1"/>
            <path id="Trazado_139767" data-name="Trazado 139767" d="M324.331,318.567H169.249a3.016,3.016,0,0,1-3.016-3.017h0a3.017,3.017,0,0,1,3.016-3.017H324.331a3.017,3.017,0,0,1,3.017,3.017h0A3.016,3.016,0,0,1,324.331,318.567Z" transform="translate(-166.233 -283.608)" fill="#acaab1"/>
            <rect id="Rectángulo_34950" data-name="Rectángulo 34950" width="23.885" height="23.885" rx="3.865" transform="translate(0 0)" fill="#d4d6d9"/>
          </g>
          <path id="Trazado_139768" data-name="Trazado 139768" d="M176.171,300.011c-.049,0-.1,0-.148,0a2.33,2.33,0,0,1-1.667-.865l-3.3-4.1a2.333,2.333,0,1,1,3.633-2.927l1.706,2.116,6.049-5.8a2.333,2.333,0,0,1,3.229,3.367l-7.885,7.566A2.333,2.333,0,0,1,176.171,300.011Z" transform="translate(-166.521 -281.952)" fill="#3b9674"/>
        </g>
        <g id="Grupo_86615" data-name="Grupo 86615" transform="translate(40.901 268.159)">
          <g id="Grupo_86614" data-name="Grupo 86614">
            <path id="Trazado_139769" data-name="Trazado 139769" d="M259.244,349.13H200.583a3.016,3.016,0,0,1-3.017-3.016h0a3.016,3.016,0,0,1,3.017-3.017h58.661a3.016,3.016,0,0,1,3.017,3.017h0A3.016,3.016,0,0,1,259.244,349.13Z" transform="translate(-168.329 -336.662)" fill="#4f577f"/>
            <path id="Trazado_139770" data-name="Trazado 139770" d="M232.993,339.218H199.074a1.509,1.509,0,0,1-1.508-1.509h0a1.508,1.508,0,0,1,1.508-1.508h33.919a1.508,1.508,0,0,1,1.508,1.508h0A1.509,1.509,0,0,1,232.993,339.218Z" transform="translate(-168.329 -336.201)" fill="#5e99b1"/>
            <path id="Trazado_139771" data-name="Trazado 139771" d="M326.427,361.182H200.583a3.016,3.016,0,0,1-3.017-3.017h0a3.017,3.017,0,0,1,3.017-3.017H326.427a3.017,3.017,0,0,1,3.017,3.017h0A3.016,3.016,0,0,1,326.427,361.182Z" transform="translate(-168.329 -337.469)" fill="#acaab1"/>
            <path id="Trazado_139772" data-name="Trazado 139772" d="M324.331,373.234H169.249a3.017,3.017,0,0,1-3.016-3.017h0a3.016,3.016,0,0,1,3.016-3.017H324.331a3.016,3.016,0,0,1,3.017,3.017h0A3.017,3.017,0,0,1,324.331,373.234Z" transform="translate(-166.233 -338.275)" fill="#acaab1"/>
            <rect id="Rectángulo_34951" data-name="Rectángulo 34951" width="23.885" height="23.885" rx="3.865" transform="translate(0 0)" fill="#d4d6d9"/>
          </g>
          <path id="Trazado_139773" data-name="Trazado 139773" d="M176.171,353.678c-.049,0-.1,0-.148,0a2.33,2.33,0,0,1-1.667-.865l-3.3-4.1a2.333,2.333,0,0,1,3.633-2.927l1.706,2.116,6.049-5.8a2.332,2.332,0,1,1,3.229,3.366l-7.885,7.567A2.334,2.334,0,0,1,176.171,353.678Z" transform="translate(-166.521 -336.552)" fill="#3b9674"/>
        </g>
      </g>
      <g id="Grupo_86619" data-name="Grupo 86619" transform="translate(302.535 326.824)">
        <g id="Grupo_86617" data-name="Grupo 86617" transform="translate(0)">
          <path id="Trazado_139774" data-name="Trazado 139774" d="M374.809,423.816l-3.569-11.3a1.937,1.937,0,0,0-1.129-1.216l-13.392-5.357c-12.3-4.919-11.855-24.175-11.5-29.343a1.926,1.926,0,0,0-1.085-1.864l-16.833-8.2a11.923,11.923,0,0,1-5.942-14.9h0a7.505,7.505,0,0,1,9.573-4.425l35.823,12.92a1.939,1.939,0,0,1,1.008.831l18.791,31.541a1.937,1.937,0,0,0,2.275.848l15.865-5.251a1.938,1.938,0,0,1,2.5,1.419l7.407,33.3a1.939,1.939,0,0,1-1.892,2.36H376.658A1.94,1.94,0,0,1,374.809,423.816Z" transform="translate(-320.098 -346.756)" fill="#f6b381"/>
          <path id="Trazado_139775" data-name="Trazado 139775" d="M380.095,404.411l-6.065-.933c-26.127-4.665-19.6-31.725-19.6-31.725l-34.343-15.066a9.985,9.985,0,0,0,5.584,9.737l19.612,9.555s-2.849,24.928,11.4,30.626l14.245,5.7,4.274,13.533h9.98Z" transform="translate(-320.063 -347.42)" fill="#f6906b"/>
          <path id="Trazado_139776" data-name="Trazado 139776" d="M324.038,355.343l1.362-2.651a3.008,3.008,0,0,1,3.7-1.452l6.8,2.461a3.008,3.008,0,0,1,1.655,4.2l-1.953,3.82a3.008,3.008,0,0,1-4.2,1.227l-6.207-3.63A3.009,3.009,0,0,1,324.038,355.343Z" transform="translate(-320.306 -347.044)" fill="#e3e3e6"/>
        </g>
        <g id="Grupo_86618" data-name="Grupo 86618" transform="translate(43.003 67.321)">
          <rect id="Rectángulo_34952" data-name="Rectángulo 34952" width="53.187" height="15.396" rx="4.75" transform="translate(2.769 8.352) rotate(-9.034)" fill="#f1e8e1"/>
          <rect id="Rectángulo_34953" data-name="Rectángulo 34953" width="31.881" height="15.396" rx="5.667" transform="translate(2.769 8.352) rotate(-9.034)" fill="#ddd3d2"/>
          <path id="Trazado_139777" data-name="Trazado 139777" d="M436.867,495.294l-10.2-65.635-60.513,9.622,8.709,56.013Z" transform="translate(-366.149 -419.624)" fill="#4f577f"/>
          <path id="Trazado_139778" data-name="Trazado 139778" d="M411.853,495.685l-7.9-51a10.885,10.885,0,0,0-12.461-9.042l-25.341,4.029,8.709,56.013Z" transform="translate(-366.149 -420.015)" fill="#393c63"/>
        </g>
      </g>
      <g id="Grupo_86622" data-name="Grupo 86622" transform="translate(58.063 326.824)">
        <g id="Grupo_86620" data-name="Grupo 86620" transform="translate(19.175)">
          <path id="Trazado_139779" data-name="Trazado 139779" d="M118.448,423.816l3.569-11.3a1.938,1.938,0,0,1,1.128-1.216l13.393-5.357c12.3-4.919,11.855-24.175,11.5-29.343a1.926,1.926,0,0,1,1.085-1.864l16.833-8.2a11.923,11.923,0,0,0,5.942-14.9h0a7.505,7.505,0,0,0-9.573-4.425l-35.823,12.92a1.939,1.939,0,0,0-1.008.831l-18.791,31.541a1.937,1.937,0,0,1-2.275.848l-15.865-5.251a1.938,1.938,0,0,0-2.5,1.419l-7.408,33.3a1.94,1.94,0,0,0,1.893,2.36H116.6A1.94,1.94,0,0,0,118.448,423.816Z" transform="translate(-78.613 -346.756)" fill="#f6b381"/>
          <path id="Trazado_139780" data-name="Trazado 139780" d="M115.236,404.411l6.065-.933c26.127-4.665,19.6-31.725,19.6-31.725l34.343-15.066a9.987,9.987,0,0,1-5.584,9.737l-19.613,9.555s2.85,24.928-11.4,30.626L124.4,412.3l-4.274,13.533h-9.98Z" transform="translate(-80.723 -347.42)" fill="#f6906b"/>
          <path id="Trazado_139781" data-name="Trazado 139781" d="M174.945,355.343l-1.363-2.651a3.007,3.007,0,0,0-3.7-1.452l-6.8,2.461a3.008,3.008,0,0,0-1.655,4.2l1.953,3.82a3.008,3.008,0,0,0,4.2,1.227l6.207-3.63A3.009,3.009,0,0,0,174.945,355.343Z" transform="translate(-84.131 -347.044)" fill="#e3e3e6"/>
        </g>
        <g id="Grupo_86621" data-name="Grupo 86621" transform="translate(0 67.321)">
          <rect id="Rectángulo_34954" data-name="Rectángulo 34954" width="53.187" height="15.396" rx="4.75" transform="translate(65.532 23.557) rotate(-170.966)" fill="#f1e8e1"/>
          <rect id="Rectángulo_34955" data-name="Rectángulo 34955" width="31.881" height="15.396" rx="5.667" transform="translate(65.532 23.557) rotate(-170.966)" fill="#ddd3d2"/>
          <path id="Trazado_139782" data-name="Trazado 139782" d="M58.063,495.294l10.2-65.635,60.514,9.622-8.709,56.013Z" transform="translate(-58.063 -419.624)" fill="#4f577f"/>
          <path id="Trazado_139783" data-name="Trazado 139783" d="M84.87,495.685l7.9-51a10.885,10.885,0,0,1,12.46-9.042l25.342,4.029-8.709,56.013Z" transform="translate(-59.856 -420.015)" fill="#393c63"/>
        </g>
      </g>
    </g>
  </g>
</svg>
