<svg xmlns="http://www.w3.org/2000/svg" width="61.165" height="61.194" viewBox="0 0 61.165 61.194">
  <g id="Grupo_81901" data-name="Grupo 81901" transform="translate(-146.839 430.035)">
    <path id="Trazado_114547" data-name="Trazado 114547" d="M179.889-284.357h3.069a4.983,4.983,0,0,1-.4-1.059.987.987,0,0,1,.3-.666.971.971,0,0,1,1.378-.021c.483.446.428,1.008-.191,1.738h3.046c-.153-.275-.416-.55-.437-.841a1.37,1.37,0,0,1,.327-.9.942.942,0,0,1,1.37.038c.451.457.383,1.006-.238,1.7h3.044a2.526,2.526,0,0,1-.425-.88,1.33,1.33,0,0,1,.366-.884.942.942,0,0,1,1.367.1c.418.465.338,1-.284,1.655h3.1c-.6-.715-.655-1.274-.176-1.719a1.008,1.008,0,0,1,1.387.007c.469.445.416.977-.19,1.735h2.976a5.443,5.443,0,0,1-.386-1.118.966.966,0,0,1,.339-.645.968.968,0,0,1,1.376.062c.438.456.37.986-.236,1.693H203.4a2.6,2.6,0,0,1-.425-.9,1.33,1.33,0,0,1,.378-.878.933.933,0,0,1,1.321.074c.453.457.386,1.009-.247,1.708h3.56v2.068c-1.165,0-2.349.05-3.527-.018a2.214,2.214,0,0,0-1.879.772c-1.843,1.913-3.742,3.773-5.626,5.646a4.313,4.313,0,0,1-.57.41l2.095,1.331,7.8-7.829,1.375,1.48-6.355,6.353H208v2.06h-.6c-3.061,0-6.121-.009-9.182.008a1.591,1.591,0,0,1-1.375-.622,1.849,1.849,0,0,0-2.67-.325,2.686,2.686,0,0,1-2.612.894,3.186,3.186,0,0,1-.737,3.2,2.949,2.949,0,0,1-2.233.92c-1.995-.027-3.114-1.578-2.909-4.079h-.7c-2.763,0-5.526-.009-8.289,0a2.963,2.963,0,0,1-2.708-1.481,1.945,1.945,0,0,0-.895-.556,10.8,10.8,0,0,1-1.851-.72,2.552,2.552,0,0,0-2.007-.217c-.191.03-.39.369-.481.607-.713,1.874-1.407,2.363-3.433,2.363h-6.136a11.859,11.859,0,0,1,.76,1.7,3.506,3.506,0,0,1-2.152,4.186,3.571,3.571,0,0,1-4.462-1.682,3.569,3.569,0,0,1,1.144-4.582c.536-.37.632-.7.339-1.173a1,1,0,0,0-1.338-.354c-.112.058-.208.146-.316.213a1.02,1.02,0,0,1-1.461-.253c-1-1.264-1.787-1.425-3.216-.63-.219-.242-.447-.492-.672-.743-.209-.233-.414-.469-.66-.748l1.108-.79-1.214-.872,4.48-4.457h-4.684v-2.033h3.582c-.643-.794-.7-1.336-.227-1.78a1.008,1.008,0,0,1,1.387,0c.478.445.423,1-.191,1.736h2.982a5.355,5.355,0,0,1-.386-1.106.967.967,0,0,1,.333-.648.968.968,0,0,1,1.377.051c.445.457.378,1-.267,1.729h3.09a2.732,2.732,0,0,1-.446-.922,1.323,1.323,0,0,1,.371-.881.942.942,0,0,1,1.366.109c.413.465.334.99-.283,1.653h3.1c-.609-.711-.665-1.281-.181-1.726a1.01,1.01,0,0,1,1.432.06c.428.466.347,1.011-.286,1.658h3.092c-.581-.73-.635-1.262-.168-1.706a1.008,1.008,0,0,1,1.388-.009c.481.446.426,1-.191,1.737h3.044c-.154-.278-.417-.553-.438-.846a1.369,1.369,0,0,1,.33-.9.942.942,0,0,1,1.37.042c.448.457.38,1-.268,1.731h3.095a2.719,2.719,0,0,1-.447-.919,1.326,1.326,0,0,1,.368-.882.942.942,0,0,1,1.366.1c.416.465.336.994-.283,1.654h3.1c-.6-.713-.66-1.277-.179-1.722a1.01,1.01,0,0,1,1.432.056C180.636-285.579,180.556-285.031,179.889-284.357Zm16.818,2.093a.555.555,0,0,0-.011.158,3.1,3.1,0,0,1-3.228,3.9.99.99,0,0,0-.63.324c-1.124,1.1-2.23,2.215-3.339,3.329-.107.108-.194.236-.346.424.949,0,1.8.032,2.641-.017a1.454,1.454,0,0,0,.869-.368c2.465-2.431,4.907-4.884,7.354-7.333.112-.112.214-.232.382-.415Zm-14.743-.031c-.885,0-1.731-.031-2.572.017a1.46,1.46,0,0,0-.874.359c-1.779,1.738-3.53,3.5-5.286,5.265a4.254,4.254,0,0,0-.279.326l2.3.746Zm-17.3,8.093c1.621.229,1.7.19,2.242-1.181a2.565,2.565,0,0,1,1.791-1.667c.526-.131,1.1-.068,1.637-.154a1.685,1.685,0,0,0,.876-.353c1.464-1.419,2.9-2.87,4.336-4.313.107-.108.193-.237.344-.424-1.012,0-1.923-.013-2.832.011a.881.881,0,0,0-.546.235C169.91-279.459,167.317-276.857,164.667-274.2ZM149.4-277.322a20.314,20.314,0,0,1,2.1.5.654.654,0,0,0,.818-.166c1.626-1.648,3.269-3.28,4.905-4.919.094-.094.173-.2.327-.388a8.724,8.724,0,0,1-1.247-.009,3.373,3.373,0,0,0-3.3,1.347C151.881-279.665,150.6-278.517,149.4-277.322Zm14.248-4.974c-.946,0-1.809-.028-2.668.016a1.361,1.361,0,0,0-.815.344c-1.445,1.4-2.856,2.844-4.289,4.261-.479.473-.991.913-1.47,1.35l2.1,1.259c.683-.686,1.45-1.415,2.161-2.2a1.545,1.545,0,0,0,.372-.922,3.005,3.005,0,0,1,2.755-3.044A2.134,2.134,0,0,0,163.646-282.3ZM183-274.131c.986,0,1.835.032,2.68-.017a1.479,1.479,0,0,0,.867-.373c1.1-1.056,2.166-2.157,3.257-3.227.526-.516,1.085-1,1.458-1.341l-.707-2.611c.018-.009-.025,0-.052.027-.828.823-1.644,1.658-2.488,2.465a1.22,1.22,0,0,0-.406,1,2.93,2.93,0,0,1-2.825,3.018C183.934-275.2,183.543-274.748,183-274.131Zm-.94-1.977-.656-2.405-4.376,4.379c.934,0,1.9.01,2.871-.011a.755.755,0,0,0,.415-.248C180.923-274.982,181.525-275.582,182.058-276.108Zm-16.739-1.677c.088-.083.24-.219.384-.362,1.347-1.342,2.693-2.685,4.159-4.148-1.124,0-2.072-.007-3.019.008a.632.632,0,0,0-.386.167c-.662.627-1.311,1.268-1.844,1.788Zm-7.29,8.238a1.54,1.54,0,0,0-1.55-1.52,1.543,1.543,0,0,0-1.5,1.5,1.539,1.539,0,0,0,1.516,1.553A1.546,1.546,0,0,0,158.029-269.546Zm28.419-11.232,1.645-1.517a18.782,18.782,0,0,1-2.192-.017,1.756,1.756,0,0,0-1.751.9Zm-27.939,6.648a18.7,18.7,0,0,1,2.21.017,1.77,1.77,0,0,0,1.808-.9l-2.413-.667Zm4.621-4.106a1.027,1.027,0,0,0-1.022-.995,1.027,1.027,0,0,0-1.01,1.007,1.025,1.025,0,0,0,1.053,1.027A1.031,1.031,0,0,0,163.13-278.237Zm21.436-.993a1.024,1.024,0,0,0-1.018,1,1.023,1.023,0,0,0,1.045,1.034,1.027,1.027,0,0,0,.986-1.03A1.023,1.023,0,0,0,184.567-279.229Zm4.1,9.176a1.029,1.029,0,0,0,1-1.02,1.027,1.027,0,0,0-1.067-1.013,1.03,1.03,0,0,0-.965,1.051A1.026,1.026,0,0,0,188.663-270.053Zm6.1-11.2a1.025,1.025,0,0,0-.979-1.036,1.024,1.024,0,0,0-1.052,1.027,1.023,1.023,0,0,0,1.011,1A1.026,1.026,0,0,0,194.764-281.255Z" transform="translate(0 -119.174)" fill="#1b4733"/>
    <path id="Trazado_114548" data-name="Trazado 114548" d="M196.388-173.488a3.029,3.029,0,0,1,2-2.587c.583-.255,1.142-.565,1.714-.844a2.748,2.748,0,0,1,2.846.179,5.236,5.236,0,0,1,.529.356,1.9,1.9,0,0,0,2.145.4,2.24,2.24,0,0,1,2.276.446c.513.4.956.894,1.45,1.365l-1.536,1.528c-.314-.367-.611-.726-.921-1.074a.812.812,0,0,0-1.03-.231,2.936,2.936,0,0,1-3.005-.387c-1.711-1.147-1.147-1.063-2.985-.186a6.371,6.371,0,0,0-.96.5,4.192,4.192,0,0,0-.609.707,12.286,12.286,0,0,1,2.12.019,3.831,3.831,0,0,1,3.042,4.512,1.286,1.286,0,0,0,1.228,1.495c1.042.01,2.084.018,3.125-.007a.538.538,0,0,1,.613.394c.174.454.4.888.656,1.44a8.574,8.574,0,0,1-1.2.207c-.977.029-1.957-.018-2.933.018a3.191,3.191,0,0,1-2.916-1.405,11.981,11.981,0,0,1-.889,1.144,3.881,3.881,0,0,1-4.142,1.072.882.882,0,0,0-.674.128,5.012,5.012,0,0,1-6.461-.13A22.747,22.747,0,0,1,187.8-166.4c-.354-.37-.586-.145-.784.085-.388.449-.725.943-1.088,1.414a2.848,2.848,0,0,1-3.664,1c-.851-.361-1.637-.87-2.483-1.246a4.029,4.029,0,0,0-1.053-.111,3.266,3.266,0,0,0-2.366.66c-1.972,1.3-5.613,1.739-7.583-.309-.074-.076-.181-.135-.223-.226-.445-.95-1.214-.873-2.069-.733-1.278.209-2.594.228-3.849.521-1.626.38-3.211.94-4.809,1.438a3.542,3.542,0,0,1-4.294-1.582c-.055-.088-.107-.179-.181-.3a3.974,3.974,0,0,1-4.552-.4l1.258-1.483c1.673.64,2.568.3,3.487-1.278a8.636,8.636,0,0,1,.545-.785c.558-.752.593-1.161.149-1.833a1.716,1.716,0,0,0-2-.748,5.842,5.842,0,0,0-1.374.982,4.82,4.82,0,0,0-.589.726l-1.413-1.565c2.2-3.013,5.345-2.978,7.28-.322.467-.617.921-1.221,1.378-1.822a3.089,3.089,0,0,1,4.267-.944,1.136,1.136,0,0,0,1.547-.231c2.178-2.477,3.649-1.747,5.768-.691a8.322,8.322,0,0,1,1.736,1.689,5.146,5.146,0,0,1,4.228.5.425.425,0,0,0,.39-.024c1.094-.958,2.5-1,3.807-1.306a1.277,1.277,0,0,0,.578-.3c.578-.563,1.111-1.174,1.695-1.73a3.893,3.893,0,0,1,6.293,1.019c.059.11.127.214.2.336,1.028-.512,2.034-1.014,3.041-1.513a3.384,3.384,0,0,1,4.957,3.233,4.877,4.877,0,0,0,.121.822Zm-39.627,7.741c.157-.043.464-.12.765-.212,1.5-.456,2.971-1.026,4.5-1.346,1.614-.338,3.278-.441,4.92-.645,1.125-.14,1.556-.706,1.258-1.781a3.718,3.718,0,0,1,.377-3.116.941.941,0,0,0-.177-1.328,5.375,5.375,0,0,0-2.075-.855c-.392-.052-.923.415-1.283.761-1.465,1.409-2.523,1.609-4.351.724a.99.99,0,0,0-1.326.22c-1.356,1.768-2.72,3.533-4,5.354A1.459,1.459,0,0,0,156.761-165.747Zm25.664-.342c1.173.652,1.388.608,2.15-.4l.461-.61c1.252-1.663,2.374-1.951,4.239-1.073a.8.8,0,0,0,1.125-.243q1.762-2.766,3.472-5.566c.281-.46.022-1.129-.56-1.69a.913.913,0,0,0-1.169-.085c-1.21.616-2.432,1.21-3.639,1.831a.934.934,0,0,0-.411.426,8.451,8.451,0,0,1-3.575,3.844.754.754,0,0,0-.357.43A4.542,4.542,0,0,1,182.424-166.089Zm-12.812-1.017a2.972,2.972,0,0,0,2.706,1.551,9.223,9.223,0,0,0,2.25-.382,2.928,2.928,0,0,0,1.959-3.475,5.034,5.034,0,0,0-4.148-3.254,3.514,3.514,0,0,0-1.225.277,1.5,1.5,0,0,0-.991,2.039A3.492,3.492,0,0,1,169.612-167.106Zm8.844-.193c.534,0,1,.015,1.462,0a2.249,2.249,0,0,0,2.193-2.2c.018-.508.015-1.018,0-1.526a2.225,2.225,0,0,0-2.563-2.248,18.478,18.478,0,0,0-1.989.4,3.241,3.241,0,0,0-.626.31A5.178,5.178,0,0,1,178.456-167.3Zm12.594,1.2a2.92,2.92,0,0,0,2.978.716,2.932,2.932,0,0,0,2.121-2.395c.071-.354.153-.706.212-1.062a2.858,2.858,0,0,0-1.411-2.976c-.774,1.236-1.525,2.492-2.336,3.708C192.152-167.419,191.592-166.792,191.05-166.1Zm6.847-.08a4.061,4.061,0,0,0,1.345-.411,13.471,13.471,0,0,0,1.937-1.918,1.745,1.745,0,0,0-.19-2.278,1.866,1.866,0,0,0-2.276-.339.71.71,0,0,0-.4.823,8.131,8.131,0,0,1,.027,1.827C198.265-167.769,198.075-167.071,197.9-166.183Zm-13.791-5.638c.615-.6,1.2-1.1,1.689-1.677a1.781,1.781,0,0,0-.1-2.386,1.8,1.8,0,0,0-2.373-.278,16.746,16.746,0,0,0-1.416,1.324A4.5,4.5,0,0,1,184.107-171.82Z" transform="translate(-1.633 -208.659)" fill="#1b4733"/>
    <path id="Trazado_114549" data-name="Trazado 114549" d="M146.839-420.9v-2h.712c3.762,0,7.523-.013,11.285.014a.79.79,0,0,0,.892-.66,3.146,3.146,0,0,0-1.128-3.521c-.443-.351-.715-.745-.477-1.312a.937.937,0,0,1,1.248-.59c1.17.411,2.317.891,3.529,1.364.059-.359.144-.865.225-1.372a1.048,1.048,0,0,1,1.6-.925,6.311,6.311,0,0,1,3.485,3.193c.092.185.178.373.291.611.3-.393.555-.751.839-1.082a8.556,8.556,0,0,1,4.6-2.8,1.055,1.055,0,0,1,1.281.43,1.036,1.036,0,0,1-.213,1.333c-.241.275-.447.581-.573.748,1.121-.467,2.3-1,3.521-1.449a1,1,0,0,1,1.4.492c.263.595-.008,1-.472,1.366a3.148,3.148,0,0,0-1.113,3.525.794.794,0,0,0,.9.645q12.624-.029,25.247-.013h4.063v2Zm22.637-2.023h2.211c.063-1.26.127-2.515.195-3.868A6.383,6.383,0,0,0,169.476-422.925Zm-2.473,0c-.22-1.726-.394-3.392-2.027-4.5-.068.425-.146.771-.173,1.121a2.142,2.142,0,0,0,.025.974c.36.807.807,1.574,1.245,2.406Zm8.545-2.57a6.578,6.578,0,0,0-1.831,2.553H175.7Zm-13.455-.018-.15.106-.159,2.478h2.161Z" fill="#1b4733"/>
    <path id="Trazado_114550" data-name="Trazado 114550" d="M208.1-322.028v1.979h-3.521a2.853,2.853,0,0,1,.45.949,1.33,1.33,0,0,1-.379.878.929.929,0,0,1-1.321-.073c-.452-.456-.385-1.011.268-1.733h-3.1a2.713,2.713,0,0,1,.445.919,1.328,1.328,0,0,1-.371.882.939.939,0,0,1-1.365-.106c-.413-.464-.334-.994.28-1.653H196.45c.142.275.413.57.415.866a1.43,1.43,0,0,1-.412.923.925.925,0,0,1-1.315-.129c-.422-.464-.342-1.006.327-1.7h-3.178c.635.762.689,1.316.209,1.762a1,1,0,0,1-1.387-.008c-.467-.443-.414-.972.187-1.733h-3.062c.6.761.657,1.29.187,1.734a1,1,0,0,1-1.387.006c-.478-.445-.423-1,.188-1.736h-2.978a5.374,5.374,0,0,1,.384,1.111.967.967,0,0,1-.338.645.964.964,0,0,1-1.375-.058c-.439-.455-.372-.991.259-1.723h-3.086c.168.3.431.579.451.87a1.37,1.37,0,0,1-.33.9.939.939,0,0,1-1.369-.041c-.448-.456-.38-1,.234-1.7h-3.04a2.549,2.549,0,0,1,.426.889,1.323,1.323,0,0,1-.374.88.938.938,0,0,1-1.365-.112c-.409-.464-.33-.988.315-1.691h-3.1c.164.317.436.614.438.912a1.424,1.424,0,0,1-.416.921.924.924,0,0,1-1.314-.135c-.418-.464-.338-1,.323-1.7H167.79c.642.757.7,1.32.211,1.765a1.007,1.007,0,0,1-1.432-.059c-.427-.465-.347-1.012.283-1.657H163.76c.588.72.641,1.264.166,1.71a1,1,0,0,1-1.387,0c-.473-.444-.419-.99.188-1.735h-2.975a5.411,5.411,0,0,1,.384,1.118.971.971,0,0,1-.341.644.959.959,0,0,1-1.33-.02c-.483-.445-.428-1.01.188-1.737h-3.041c.154.279.417.555.436.847a1.367,1.367,0,0,1-.334.9.939.939,0,0,1-1.369-.047c-.443-.456-.376-1,.234-1.695h-3.034a2.577,2.577,0,0,1,.424.9,1.331,1.331,0,0,1-.378.878.929.929,0,0,1-1.321-.073c-.453-.456-.385-1.012.246-1.709h-3.558v-2.024Z" transform="translate(-0.099 -89.605)" fill="#1b4733"/>
    <path id="Trazado_114551" data-name="Trazado 114551" d="M171.574-362.031a1.651,1.651,0,0,0,1.448,1.018c1.814.02,2.75.8,4.1,2.388l-1.437,1.345a8.283,8.283,0,0,0-1.039-.986,3.17,3.17,0,0,0-1.393-.65,4.018,4.018,0,0,1-3.779-2.819,2.3,2.3,0,0,0-.1-.229c-.006-.012-.037-.013-.147-.047-.07.17-.14.353-.22.53a3.772,3.772,0,0,1-3.543,2.488,3.755,3.755,0,0,0-3.265,1.462,2.753,2.753,0,0,1-.3.282l-1.321-1.5a4.976,4.976,0,0,1,4.378-2.247,1.993,1.993,0,0,0,2-1H146.9v-2.026h61.132v1.985Z" transform="translate(-0.052 -54.771)" fill="#1b4733"/>
    <path id="Trazado_114552" data-name="Trazado 114552" d="M208.1-82.419v1.969H146.954v-1.969Z" transform="translate(-0.095 -288.391)" fill="#1b4733"/>
    <path id="Trazado_114553" data-name="Trazado 114553" d="M296.545-193.4a3.072,3.072,0,0,1-3.024,3.059,3.072,3.072,0,0,1-3.091-3.058,3.069,3.069,0,0,1,3.024-3.059A3.07,3.07,0,0,1,296.545-193.4Zm-3.066,1.016a1.026,1.026,0,0,0,1.023-.993,1.029,1.029,0,0,0-.976-1.041,1.025,1.025,0,0,0-1.055,1.024A1.026,1.026,0,0,0,293.479-192.383Z" transform="translate(-119.127 -193.783)" fill="#1b4733"/>
    <path id="Trazado_114554" data-name="Trazado 114554" d="M177.651-296.256a1.025,1.025,0,0,1-1.012-1.019,1.022,1.022,0,0,1,1.018-1.012,1.024,1.024,0,0,1,1.013,1.018A1.027,1.027,0,0,1,177.651-296.256Z" transform="translate(-24.723 -109.301)" fill="#1b4733"/>
    <path id="Trazado_114555" data-name="Trazado 114555" d="M418.237-297.228a1.032,1.032,0,0,1-1.065.966,1.03,1.03,0,0,1-.964-1.066,1.026,1.026,0,0,1,1.064-.965A1.029,1.029,0,0,1,418.237-297.228Z" transform="translate(-223.474 -109.295)" fill="#1b4733"/>
    <path id="Trazado_114556" data-name="Trazado 114556" d="M154.712-297.262a1.027,1.027,0,0,1-1.026,1.006,1.025,1.025,0,0,1-1-1.026,1.022,1.022,0,0,1,1.025-1A1.025,1.025,0,0,1,154.712-297.262Z" transform="translate(-4.847 -109.301)" fill="#1b4733"/>
    <path id="Trazado_114557" data-name="Trazado 114557" d="M201.632-296.257a1.025,1.025,0,0,1-1.037-.994,1.023,1.023,0,0,1,.992-1.037,1.026,1.026,0,0,1,1.038.993A1.028,1.028,0,0,1,201.632-296.257Z" transform="translate(-44.598 -109.3)" fill="#1b4733"/>
    <path id="Trazado_114558" data-name="Trazado 114558" d="M226.584-297.282a1.027,1.027,0,0,1-1.006,1.025,1.025,1.025,0,0,1-1.024-1.007,1.022,1.022,0,0,1,1.005-1.025A1.024,1.024,0,0,1,226.584-297.282Z" transform="translate(-64.474 -109.301)" fill="#1b4733"/>
    <path id="Trazado_114559" data-name="Trazado 114559" d="M250.539-297.3a1.029,1.029,0,0,1-.991,1.041,1.025,1.025,0,0,1-1.039-.991,1.023,1.023,0,0,1,.99-1.04A1.025,1.025,0,0,1,250.539-297.3Z" transform="translate(-84.348 -109.3)" fill="#1b4733"/>
    <path id="Trazado_114560" data-name="Trazado 114560" d="M273.45-296.258a1.026,1.026,0,0,1-.984-1.047,1.023,1.023,0,0,1,1.045-.984,1.026,1.026,0,0,1,.985,1.046A1.029,1.029,0,0,1,273.45-296.258Z" transform="translate(-104.223 -109.299)" fill="#1b4733"/>
    <path id="Trazado_114561" data-name="Trazado 114561" d="M297.468-298.289a1.026,1.026,0,0,1,.986,1.045,1.029,1.029,0,0,1-1.045.986,1.026,1.026,0,0,1-.985-1.046A1.023,1.023,0,0,1,297.468-298.289Z" transform="translate(-124.099 -109.299)" fill="#1b4733"/>
    <path id="Trazado_114562" data-name="Trazado 114562" d="M322.412-297.294a1.028,1.028,0,0,1-.994,1.037,1.026,1.026,0,0,1-1.036-.995,1.023,1.023,0,0,1,.993-1.036A1.025,1.025,0,0,1,322.412-297.294Z" transform="translate(-143.976 -109.3)" fill="#1b4733"/>
    <path id="Trazado_114563" data-name="Trazado 114563" d="M345.383-296.258a1.026,1.026,0,0,1-1.045-.985,1.023,1.023,0,0,1,.984-1.046,1.026,1.026,0,0,1,1.046.984A1.029,1.029,0,0,1,345.383-296.258Z" transform="translate(-163.85 -109.299)" fill="#1b4733"/>
    <path id="Trazado_114564" data-name="Trazado 114564" d="M370.326-297.3a1.029,1.029,0,0,1-.986,1.046,1.026,1.026,0,0,1-1.044-.986,1.023,1.023,0,0,1,.985-1.045A1.026,1.026,0,0,1,370.326-297.3Z" transform="translate(-183.726 -109.299)" fill="#1b4733"/>
    <path id="Trazado_114565" data-name="Trazado 114565" d="M394.283-297.244a1.029,1.029,0,0,1-1.046.986,1.026,1.026,0,0,1-.984-1.046,1.023,1.023,0,0,1,1.045-.985A1.026,1.026,0,0,1,394.283-297.244Z" transform="translate(-203.601 -109.299)" fill="#1b4733"/>
    <path id="Trazado_114566" data-name="Trazado 114566" d="M442.2-297.247a1.029,1.029,0,0,1-1.042.989,1.026,1.026,0,0,1-.988-1.043,1.023,1.023,0,0,1,1.041-.989A1.026,1.026,0,0,1,442.2-297.247Z" transform="translate(-243.353 -109.3)" fill="#1b4733"/>
    <path id="Trazado_114567" data-name="Trazado 114567" d="M466.156-297.251a1.028,1.028,0,0,1-1.038.994,1.026,1.026,0,0,1-.992-1.038,1.023,1.023,0,0,1,1.037-.993A1.026,1.026,0,0,1,466.156-297.251Z" transform="translate(-263.229 -109.3)" fill="#1b4733"/>
    <path id="Trazado_114568" data-name="Trazado 114568" d="M489.071-296.257a1.026,1.026,0,0,1-.989-1.042,1.023,1.023,0,0,1,1.04-.989,1.026,1.026,0,0,1,.99,1.041A1.028,1.028,0,0,1,489.071-296.257Z" transform="translate(-283.104 -109.3)" fill="#1b4733"/>
  </g>
</svg>
