<svg id="_7" data-name="7" xmlns="http://www.w3.org/2000/svg" xmlns:xlink="http://www.w3.org/1999/xlink" width="48.931" height="48.931" viewBox="0 0 48.931 48.931">
  <defs>
    <clipPath id="clip-path">
      <rect id="Rectángulo_2109" data-name="Rectángulo 2109" width="48.931" height="48.931" fill="#ef9310"/>
    </clipPath>
  </defs>
  <path id="Trazado_1204" data-name="Trazado 1204" d="M2917.011,422.163a2.676,2.676,0,1,0-2.676,2.676,2.676,2.676,0,0,0,2.676-2.676Zm-3.823,0a1.147,1.147,0,1,1,1.147,1.147,1.147,1.147,0,0,1-1.147-1.147Zm0,0" transform="translate(-2871.138 -403.432)" fill="#ef9310"/>
  <path id="Trazado_1205" data-name="Trazado 1205" d="M2746.336,526.839a2.676,2.676,0,1,0-2.676-2.676,2.676,2.676,0,0,0,2.676,2.676Zm0-3.823a1.147,1.147,0,1,1-1.147,1.147,1.147,1.147,0,0,1,1.147-1.147Zm0,0" transform="translate(-2724.546 -492.435)" fill="#ef9310"/>
  <rect id="Rectángulo_2105" data-name="Rectángulo 2105" width="1.529" height="1.529" transform="translate(19.878 8.41)" fill="#ef9310"/>
  <rect id="Rectángulo_2106" data-name="Rectángulo 2106" width="1.529" height="1.529" transform="translate(42.814 41.285)" fill="#ef9310"/>
  <rect id="Rectángulo_2107" data-name="Rectángulo 2107" width="1.529" height="1.529" transform="translate(0 24.275)" fill="#ef9310"/>
  <path id="Trazado_1206" data-name="Trazado 1206" d="M2914.44,519.4l-2.275-1.244-1.244-2.275a.764.764,0,0,0-1.341,0l-1.244,2.275-2.274,1.244a.764.764,0,0,0,0,1.341l2.274,1.244,1.244,2.275a.764.764,0,0,0,1.341,0l1.244-2.275,2.275-1.244a.764.764,0,0,0,0-1.341Zm-3.2,1.352a.764.764,0,0,0-.3.3l-.68,1.245-.681-1.245a.765.765,0,0,0-.3-.3l-1.245-.68,1.245-.681a.767.767,0,0,0,.3-.3l.681-1.245.681,1.245a.767.767,0,0,0,.3.3l1.245.681Zm0,0" transform="translate(-2865.907 -487.2)" fill="#ef9310"/>
  <path id="Trazado_1207" data-name="Trazado 1207" d="M2600.058,310.746l2.275,1.244,1.244,2.275a.765.765,0,0,0,1.342,0l1.244-2.275,2.274-1.244a.764.764,0,0,0,0-1.341l-2.274-1.244-1.244-2.275a.765.765,0,0,0-1.342,0l-1.244,2.275-2.275,1.244a.764.764,0,0,0,0,1.341Zm3.205-1.352a.767.767,0,0,0,.3-.3l.68-1.245.681,1.245a.765.765,0,0,0,.3.3l1.245.68-1.245.681a.765.765,0,0,0-.3.3l-.681,1.245-.681-1.245a.766.766,0,0,0-.3-.3l-1.245-.68Zm0,0" transform="translate(-2598.896 -303.959)" fill="#ef9310"/>
  <path id="Trazado_1208" data-name="Trazado 1208" d="M2776.515,293.624l-9.939,6.881a.764.764,0,0,0-.33.629v8.41h-.764a.765.765,0,0,0-.764.765v7.645a.765.765,0,0,0,.764.765h1.529V324.8l-.7,7.044a3.13,3.13,0,0,0-2.3,1.885l-.006.015-2.294,6.116a.764.764,0,0,0,.716,1.033h18.349a.764.764,0,0,0,.716-1.033l-2.285-6.095a2.811,2.811,0,0,0-2.313-1.921l-.7-7.046v-6.078h1.529a.765.765,0,0,0,.765-.765v-7.645a.764.764,0,0,0-.1-.376c.01-.025.022-.049.032-.074l1.285-2.57c1.672.1,6.706.1,8.441-3.1h1.045v-1.529h-1.529a.764.764,0,0,0-.71.481c-.524,1.309-1.921,2.145-4.153,2.486a15.09,15.09,0,0,1-3.462.1.765.765,0,0,0-.769.418l-1.529,3.058c-.01.019-.018.038-.026.058-.917,2.293-3.566,2.638-5.067,2.64l4.1-10.262,6.683-4.455-.848-1.272L2775,300.5a.764.764,0,0,0-.286.352l-.444,1.111-3.583.717a.765.765,0,0,0-.614.75v1.124a3.445,3.445,0,0,0-1.911,3.081,3.284,3.284,0,0,0,.625,1.911h-1.008v-8.009l9.413-6.517h11.994v-1.529H2776.95a.764.764,0,0,0-.435.136Zm-1.174,38.091h-7.485l.612-6.116h6.262Zm2.406,2.514c0,.016.01.032.016.049l1.906,5.083h-16.143l1.9-5.075a2.024,2.024,0,0,1,1.993-1.042h8.158c1.871,0,2.093.741,2.166.985Zm-3.091-10.159h-6.116v-5.352h6.116Zm-2.715-10.641h0a9.376,9.376,0,0,0,3.38-.594,5.933,5.933,0,0,0,1.627-.957v5.312h-10.7v-6.116h4.376l-.1.259a1.53,1.53,0,0,0,1.423,2.1Zm-.343-9.375,1.99-.4-.375.939a3.627,3.627,0,0,0-1.615-.4Zm0,1.667a2.15,2.15,0,0,1,1.043.3l-1.384,3.459a2.008,2.008,0,0,1-1.571-1.851,1.913,1.913,0,0,1,1.911-1.911Zm0,0" transform="translate(-2740.252 -293.488)" fill="#ef9310"/>
  <g id="Grupo_4532" data-name="Grupo 4532" transform="translate(0 0)">
    <g id="Grupo_4531" data-name="Grupo 4531" clip-path="url(#clip-path)">
      <rect id="Rectángulo_2108" data-name="Rectángulo 2108" width="1.529" height="1.529" transform="translate(9.175 15.291)" fill="#ef9310"/>
      <path id="Trazado_1209" data-name="Trazado 1209" d="M2613.538,388.541h-3.726c.451-3.795,2.2-18.677,2.2-21.407a4.7,4.7,0,0,0-3.058-4.372v-2.509a.765.765,0,0,0-1.106-.684,6.252,6.252,0,0,0-2.541,3.14l-10.372,3.7a.765.765,0,0,0-.507.72v4.587a.765.765,0,0,0,.765.765h8.023c-2.189,2.15-6.249,6.46-7.226,9.719-.848,2.827-.707,4.958.417,6.336h-1.979a.765.765,0,0,0-.764.765V391.6a.765.765,0,0,0,.764.765h1.732a3.68,3.68,0,0,0-.912,1.245c-.01.024-.018.049-.025.074l-1.529,5.352a.765.765,0,0,0,.735.975h17.584a.765.765,0,0,0,.735-.975l-1.529-5.352,0-.01a3.925,3.925,0,0,0-.7-1.309h3.022a.765.765,0,0,0,.764-.765v-2.294a.765.765,0,0,0-.764-.765Zm-15.925-.936c-1.008-1.191-.645-3.355-.163-4.961,1.084-3.615,6.8-9.062,7.976-10.159h1.231a.765.765,0,0,0,.242-.039,2.448,2.448,0,0,0,1.485-1.317c.761-1.642-.147-4.015-.253-4.28l-1.419.568a4.963,4.963,0,0,1,.285,3.069.9.9,0,0,1-.479.47h-10.565v-3.284l10.2-3.641a.766.766,0,0,0,.467-.477,6.861,6.861,0,0,1,.8-1.567v1.324a.765.765,0,0,0,.579.742,4.041,4.041,0,0,1,1.255.635,2.916,2.916,0,0,1,1.223,2.446c0,1.208-.373,5.036-.817,9.175h-3.005v1.529h2.839c-.113,1.029-.227,2.06-.34,3.058h-2.5v1.529h2.326c-.31,2.72-.582,5.025-.711,6.116h-8.595a3.037,3.037,0,0,1-2.064-.936Zm12.133,6.5,1.25,4.372h-15.558l1.239-4.334a4,4,0,0,1,2.748-1.782h8.158a2.555,2.555,0,0,1,2.164,1.744Zm3.027-3.273h-17.584v-.765h17.584Zm0,0" transform="translate(-2593.66 -351.078)" fill="#ef9310"/>
    </g>
  </g>
</svg>
