<svg xmlns="http://www.w3.org/2000/svg" width="610" height="754" viewBox="0 0 610 754">
  <g id="Grupo_86820" data-name="Grupo 86820" transform="translate(-600 -1331.675)">
    <rect id="Rectángulo_35044" data-name="Rectángulo 35044" width="290" height="84" transform="translate(600 1603.675)" fill="#f2a940"/>
    <rect id="Rectángulo_35046" data-name="Rectángulo 35046" width="290" height="102" transform="translate(600 1868.675)" fill="#ebdd81"/>
    <path id="Trazado_140237" data-name="Trazado 140237" d="M-90.082,0V-17.062h4.816a7.753,7.753,0,0,1,3.938.984,6.658,6.658,0,0,1,2.643,2.8,9.116,9.116,0,0,1,.943,4.172v1.09a9.148,9.148,0,0,1-.932,4.23A6.553,6.553,0,0,1-81.334-1a8.247,8.247,0,0,1-4.025,1Zm2.25-15.223V-1.84h2.367a5.15,5.15,0,0,0,4.049-1.619,6.687,6.687,0,0,0,1.447-4.61v-1a6.793,6.793,0,0,0-1.365-4.521,4.858,4.858,0,0,0-3.873-1.636ZM-72.328,0H-74.5V-12.68h2.168Zm-2.344-16.043a1.294,1.294,0,0,1,.322-.891,1.21,1.21,0,0,1,.955-.363,1.229,1.229,0,0,1,.961.363,1.28,1.28,0,0,1,.328.891,1.238,1.238,0,0,1-.328.879,1.251,1.251,0,0,1-.961.352,1.232,1.232,0,0,1-.955-.352A1.251,1.251,0,0,1-74.672-16.043ZM-66.5,0h-2.168V-18H-66.5Zm5.824,0h-2.168V-12.68h2.168Zm-2.344-16.043a1.294,1.294,0,0,1,.322-.891,1.21,1.21,0,0,1,.955-.363,1.229,1.229,0,0,1,.961.363,1.28,1.28,0,0,1,.328.891,1.238,1.238,0,0,1-.328.879,1.251,1.251,0,0,1-.961.352,1.232,1.232,0,0,1-.955-.352A1.251,1.251,0,0,1-63.023-16.043Zm5.3,9.6a7.452,7.452,0,0,1,1.371-4.717,4.385,4.385,0,0,1,3.633-1.752A4.362,4.362,0,0,1-49.1-11.273L-49-12.68h1.98V-.3a5.158,5.158,0,0,1-1.459,3.879,5.384,5.384,0,0,1-3.92,1.418,6.521,6.521,0,0,1-2.684-.586,4.62,4.62,0,0,1-2-1.605l1.125-1.3a4.239,4.239,0,0,0,3.41,1.723,3.322,3.322,0,0,0,2.467-.891A3.4,3.4,0,0,0-49.2-.176v-1.09a4.456,4.456,0,0,1-3.551,1.5,4.331,4.331,0,0,1-3.6-1.793A7.835,7.835,0,0,1-57.727-6.445Zm2.18.246a5.685,5.685,0,0,0,.879,3.369,2.856,2.856,0,0,0,2.461,1.225A3.176,3.176,0,0,0-49.2-3.469V-9.258a3.213,3.213,0,0,0-2.988-1.816,2.882,2.882,0,0,0-2.473,1.23A6.192,6.192,0,0,0-55.547-6.2ZM-38.484.234a5.54,5.54,0,0,1-4.2-1.693A6.285,6.285,0,0,1-44.3-5.988v-.4a7.609,7.609,0,0,1,.721-3.369,5.622,5.622,0,0,1,2.016-2.32,5.068,5.068,0,0,1,2.807-.838,4.749,4.749,0,0,1,3.844,1.629,7.053,7.053,0,0,1,1.371,4.664v.9h-8.59a4.507,4.507,0,0,0,1.1,3.029,3.444,3.444,0,0,0,2.666,1.154A3.776,3.776,0,0,0-36.422-2a4.888,4.888,0,0,0,1.395-1.242L-33.7-2.215A5.325,5.325,0,0,1-38.484.234Zm-.27-11.367a2.892,2.892,0,0,0-2.2.955,4.642,4.642,0,0,0-1.1,2.678h6.352v-.164a4.129,4.129,0,0,0-.891-2.561A2.723,2.723,0,0,0-38.754-11.133Zm9.773-1.547.07,1.594a4.621,4.621,0,0,1,3.8-1.828q4.02,0,4.055,4.535V0h-2.168V-8.391a2.919,2.919,0,0,0-.627-2.027,2.512,2.512,0,0,0-1.916-.656,3.129,3.129,0,0,0-1.852.563,3.82,3.82,0,0,0-1.242,1.477V0h-2.168V-12.68ZM-12.7-1.535a3.123,3.123,0,0,0,2.027-.7A2.474,2.474,0,0,0-9.715-4h2.051a3.931,3.931,0,0,1-.75,2.074A4.94,4.94,0,0,1-10.26-.352,5.326,5.326,0,0,1-12.7.234a5.223,5.223,0,0,1-4.119-1.729,6.884,6.884,0,0,1-1.529-4.729v-.363a7.634,7.634,0,0,1,.68-3.293,5.177,5.177,0,0,1,1.951-2.238,5.543,5.543,0,0,1,3.006-.8A5.085,5.085,0,0,1-9.17-11.637,4.565,4.565,0,0,1-7.664-8.32H-9.715a2.988,2.988,0,0,0-.932-2.021,2.9,2.9,0,0,0-2.068-.791,3.034,3.034,0,0,0-2.561,1.189A5.586,5.586,0,0,0-16.184-6.5v.41a5.475,5.475,0,0,0,.9,3.375A3.049,3.049,0,0,0-12.7-1.535ZM-2.871,0H-5.039V-12.68h2.168ZM-5.215-16.043a1.294,1.294,0,0,1,.322-.891,1.21,1.21,0,0,1,.955-.363,1.229,1.229,0,0,1,.961.363,1.28,1.28,0,0,1,.328.891,1.238,1.238,0,0,1-.328.879,1.251,1.251,0,0,1-.961.352,1.232,1.232,0,0,1-.955-.352A1.251,1.251,0,0,1-5.215-16.043ZM8.426,0a4.554,4.554,0,0,1-.3-1.336A4.837,4.837,0,0,1,4.512.234,4.476,4.476,0,0,1,1.436-.826a3.431,3.431,0,0,1-1.2-2.689A3.584,3.584,0,0,1,1.74-6.592a7.1,7.1,0,0,1,4.236-1.1H8.086v-1a2.435,2.435,0,0,0-.68-1.811,2.732,2.732,0,0,0-2-.674,3.161,3.161,0,0,0-1.945.586,1.727,1.727,0,0,0-.785,1.418H.492A2.992,2.992,0,0,1,1.166-11a4.6,4.6,0,0,1,1.828-1.4,6.15,6.15,0,0,1,2.537-.516,5.013,5.013,0,0,1,3.434,1.1A3.953,3.953,0,0,1,10.254-8.8v5.836A7.135,7.135,0,0,0,10.7-.187V0Zm-3.6-1.652A3.81,3.81,0,0,0,6.762-2.18,3.19,3.19,0,0,0,8.086-3.551v-2.6h-1.7Q2.4-6.152,2.4-3.82a1.974,1.974,0,0,0,.68,1.594A2.612,2.612,0,0,0,4.828-1.652ZM15.691-12.68l.059,1.406a4.683,4.683,0,0,1,3.762-1.641,3.625,3.625,0,0,1,3.621,2.039,4.8,4.8,0,0,1,1.646-1.477,4.863,4.863,0,0,1,2.4-.562q4.172,0,4.242,4.418V0H29.25V-8.367a2.911,2.911,0,0,0-.621-2.033,2.735,2.735,0,0,0-2.086-.674,2.875,2.875,0,0,0-2,.721,2.924,2.924,0,0,0-.926,1.939V0h-2.18V-8.309q0-2.766-2.707-2.766a2.9,2.9,0,0,0-2.918,1.816V0H13.641V-12.68ZM37.043,0H34.875V-12.68h2.168ZM34.7-16.043a1.294,1.294,0,0,1,.322-.891,1.21,1.21,0,0,1,.955-.363,1.229,1.229,0,0,1,.961.363,1.28,1.28,0,0,1,.328.891,1.238,1.238,0,0,1-.328.879,1.251,1.251,0,0,1-.961.352,1.232,1.232,0,0,1-.955-.352A1.251,1.251,0,0,1,34.7-16.043ZM45.773.234a5.54,5.54,0,0,1-4.2-1.693,6.285,6.285,0,0,1-1.617-4.529v-.4a7.609,7.609,0,0,1,.721-3.369,5.622,5.622,0,0,1,2.016-2.32,5.068,5.068,0,0,1,2.807-.838,4.749,4.749,0,0,1,3.844,1.629,7.053,7.053,0,0,1,1.371,4.664v.9h-8.59a4.507,4.507,0,0,0,1.1,3.029,3.444,3.444,0,0,0,2.666,1.154A3.776,3.776,0,0,0,47.836-2,4.888,4.888,0,0,0,49.23-3.246l1.324,1.031A5.325,5.325,0,0,1,45.773.234ZM45.5-11.133a2.892,2.892,0,0,0-2.2.955A4.642,4.642,0,0,0,42.2-7.5h6.352v-.164a4.129,4.129,0,0,0-.891-2.561A2.723,2.723,0,0,0,45.5-11.133Zm9.773-1.547.07,1.594a4.621,4.621,0,0,1,3.8-1.828q4.02,0,4.055,4.535V0H61.031V-8.391a2.919,2.919,0,0,0-.627-2.027,2.512,2.512,0,0,0-1.916-.656,3.129,3.129,0,0,0-1.852.563,3.82,3.82,0,0,0-1.242,1.477V0H53.227V-12.68ZM69.41-15.75v3.07h2.367V-11H69.41v7.873a1.76,1.76,0,0,0,.316,1.144,1.332,1.332,0,0,0,1.078.381,5.249,5.249,0,0,0,1.031-.141V0a6.322,6.322,0,0,1-1.664.233A2.7,2.7,0,0,1,67.98-.645a3.776,3.776,0,0,1-.738-2.5V-11H64.934V-12.68h2.309v-3.07ZM73.5-6.457a7.489,7.489,0,0,1,.732-3.352,5.464,5.464,0,0,1,2.039-2.3,5.551,5.551,0,0,1,2.982-.809,5.347,5.347,0,0,1,4.189,1.793,6.9,6.9,0,0,1,1.6,4.77V-6.2a7.555,7.555,0,0,1-.709,3.322A5.383,5.383,0,0,1,82.307-.586a5.614,5.614,0,0,1-3.029.82A5.334,5.334,0,0,1,75.1-1.559,6.863,6.863,0,0,1,73.5-6.3Zm2.18.258a5.424,5.424,0,0,0,.979,3.387,3.132,3.132,0,0,0,2.619,1.277A3.113,3.113,0,0,0,81.9-2.83a5.932,5.932,0,0,0,.973-3.627,5.415,5.415,0,0,0-.99-3.381,3.148,3.148,0,0,0-2.631-1.295,3.113,3.113,0,0,0-2.59,1.277A5.888,5.888,0,0,0,75.68-6.2Z" transform="translate(756 1653.675)" fill="#12263f"/>
    <path id="Trazado_140239" data-name="Trazado 140239" d="M-67.564-6.9h-4.008V0h-2.262V-17.062h5.648A6.686,6.686,0,0,1-63.75-15.75,4.722,4.722,0,0,1-62.2-11.93a4.593,4.593,0,0,1-.861,2.777,5.142,5.142,0,0,1-2.4,1.77l4.008,7.242V0h-2.414Zm-4.008-1.84h3.457a3.9,3.9,0,0,0,2.666-.869,2.938,2.938,0,0,0,.99-2.325,3.094,3.094,0,0,0-.943-2.43,4,4,0,0,0-2.725-.857h-3.445ZM-54.123.234a5.54,5.54,0,0,1-4.2-1.693,6.285,6.285,0,0,1-1.617-4.529v-.4a7.609,7.609,0,0,1,.721-3.369,5.622,5.622,0,0,1,2.016-2.32,5.068,5.068,0,0,1,2.807-.838,4.749,4.749,0,0,1,3.844,1.629,7.053,7.053,0,0,1,1.371,4.664v.9h-8.59a4.507,4.507,0,0,0,1.1,3.029,3.444,3.444,0,0,0,2.666,1.154A3.776,3.776,0,0,0-52.061-2a4.888,4.888,0,0,0,1.395-1.242l1.324,1.031A5.325,5.325,0,0,1-54.123.234Zm-.27-11.367a2.892,2.892,0,0,0-2.2.955A4.642,4.642,0,0,0-57.7-7.5h6.352v-.164a4.129,4.129,0,0,0-.891-2.561A2.723,2.723,0,0,0-54.393-11.133Zm15.105,7.77a1.6,1.6,0,0,0-.662-1.365,6.373,6.373,0,0,0-2.309-.838,10.915,10.915,0,0,1-2.613-.844A3.718,3.718,0,0,1-46.3-7.582,2.8,2.8,0,0,1-46.764-9.2a3.289,3.289,0,0,1,1.318-2.637,5.149,5.149,0,0,1,3.369-1.078,5.3,5.3,0,0,1,3.5,1.113,3.536,3.536,0,0,1,1.342,2.848h-2.18a1.957,1.957,0,0,0-.756-1.535,2.832,2.832,0,0,0-1.9-.645,2.964,2.964,0,0,0-1.852.516A1.623,1.623,0,0,0-44.6-9.27a1.315,1.315,0,0,0,.621,1.184,7.642,7.642,0,0,0,2.244.762,11.693,11.693,0,0,1,2.631.867,3.838,3.838,0,0,1,1.494,1.213,2.982,2.982,0,0,1,.486,1.729A3.245,3.245,0,0,1-38.479-.791,5.7,5.7,0,0,1-42.006.234,6.385,6.385,0,0,1-44.7-.3a4.384,4.384,0,0,1-1.834-1.506A3.629,3.629,0,0,1-47.2-3.9h2.168a2.245,2.245,0,0,0,.873,1.729,3.387,3.387,0,0,0,2.15.639,3.5,3.5,0,0,0,1.975-.5A1.53,1.53,0,0,0-39.287-3.363Zm12.82,2.109A4.6,4.6,0,0,1-30.182.234,3.942,3.942,0,0,1-33.27-.943,5.1,5.1,0,0,1-34.342-4.43v-8.25h2.168v8.191q0,2.883,2.344,2.883a3.245,3.245,0,0,0,3.3-1.852V-12.68h2.168V0H-26.42ZM-18.709,0h-2.168V-18h2.168Zm6.41-15.75v3.07h2.367V-11H-12.3v7.873a1.76,1.76,0,0,0,.316,1.144,1.332,1.332,0,0,0,1.078.381,5.249,5.249,0,0,0,1.031-.141V0a6.322,6.322,0,0,1-1.664.233,2.7,2.7,0,0,1-2.191-.879,3.776,3.776,0,0,1-.738-2.5V-11h-2.309V-12.68h2.309v-3.07ZM.428,0a4.554,4.554,0,0,1-.3-1.336A4.837,4.837,0,0,1-3.486.234,4.476,4.476,0,0,1-6.562-.826a3.431,3.431,0,0,1-1.2-2.689A3.584,3.584,0,0,1-6.258-6.592a7.1,7.1,0,0,1,4.236-1.1H.088v-1a2.435,2.435,0,0,0-.68-1.811,2.732,2.732,0,0,0-2-.674,3.161,3.161,0,0,0-1.945.586,1.727,1.727,0,0,0-.785,1.418h-2.18A2.992,2.992,0,0,1-6.832-11,4.6,4.6,0,0,1-5-12.4a6.15,6.15,0,0,1,2.537-.516,5.013,5.013,0,0,1,3.434,1.1A3.953,3.953,0,0,1,2.256-8.8v5.836A7.135,7.135,0,0,0,2.7-.187V0Zm-3.6-1.652A3.81,3.81,0,0,0-1.236-2.18,3.19,3.19,0,0,0,.088-3.551v-2.6h-1.7Q-5.6-6.152-5.6-3.82a1.974,1.974,0,0,0,.68,1.594A2.612,2.612,0,0,0-3.17-1.652Zm8.3-4.793A7.428,7.428,0,0,1,6.51-11.139a4.373,4.373,0,0,1,3.621-1.775,4.4,4.4,0,0,1,3.527,1.523V-18h2.168V0H13.834l-.105-1.359A4.415,4.415,0,0,1,10.107.234a4.331,4.331,0,0,1-3.592-1.8A7.512,7.512,0,0,1,5.127-6.281ZM7.295-6.2a5.624,5.624,0,0,0,.891,3.375,2.879,2.879,0,0,0,2.461,1.219,3.163,3.163,0,0,0,3.012-1.852V-9.281a3.187,3.187,0,0,0-2.988-1.793,2.893,2.893,0,0,0-2.484,1.23A6.192,6.192,0,0,0,7.295-6.2Zm11.32-.258a7.489,7.489,0,0,1,.732-3.352,5.464,5.464,0,0,1,2.039-2.3,5.551,5.551,0,0,1,2.982-.809,5.347,5.347,0,0,1,4.189,1.793,6.9,6.9,0,0,1,1.6,4.77V-6.2a7.555,7.555,0,0,1-.709,3.322A5.383,5.383,0,0,1,27.422-.586a5.614,5.614,0,0,1-3.029.82,5.334,5.334,0,0,1-4.178-1.793,6.863,6.863,0,0,1-1.6-4.746Zm2.18.258a5.424,5.424,0,0,0,.979,3.387,3.132,3.132,0,0,0,2.619,1.277A3.113,3.113,0,0,0,27.018-2.83a5.932,5.932,0,0,0,.973-3.627A5.415,5.415,0,0,0,27-9.838a3.148,3.148,0,0,0-2.631-1.295,3.113,3.113,0,0,0-2.59,1.277A5.888,5.888,0,0,0,20.795-6.2ZM40.26-3.363A1.6,1.6,0,0,0,39.6-4.729a6.373,6.373,0,0,0-2.309-.838,10.915,10.915,0,0,1-2.613-.844,3.718,3.718,0,0,1-1.43-1.172A2.8,2.8,0,0,1,32.783-9.2,3.289,3.289,0,0,1,34.1-11.836a5.149,5.149,0,0,1,3.369-1.078,5.3,5.3,0,0,1,3.5,1.113,3.536,3.536,0,0,1,1.342,2.848h-2.18a1.957,1.957,0,0,0-.756-1.535,2.832,2.832,0,0,0-1.9-.645,2.964,2.964,0,0,0-1.852.516,1.623,1.623,0,0,0-.668,1.348,1.315,1.315,0,0,0,.621,1.184,7.642,7.642,0,0,0,2.244.762,11.693,11.693,0,0,1,2.631.867,3.838,3.838,0,0,1,1.494,1.213,2.982,2.982,0,0,1,.486,1.729A3.245,3.245,0,0,1,41.068-.791,5.7,5.7,0,0,1,37.541.234a6.385,6.385,0,0,1-2.7-.539,4.384,4.384,0,0,1-1.834-1.506A3.629,3.629,0,0,1,32.35-3.9h2.168a2.245,2.245,0,0,0,.873,1.729,3.387,3.387,0,0,0,2.15.639,3.5,3.5,0,0,0,1.975-.5A1.53,1.53,0,0,0,40.26-3.363ZM50.666-6.445a7.428,7.428,0,0,1,1.383-4.693,4.373,4.373,0,0,1,3.621-1.775A4.4,4.4,0,0,1,59.2-11.391V-18h2.168V0H59.373l-.105-1.359A4.415,4.415,0,0,1,55.646.234a4.331,4.331,0,0,1-3.592-1.8,7.512,7.512,0,0,1-1.389-4.711Zm2.168.246a5.624,5.624,0,0,0,.891,3.375,2.879,2.879,0,0,0,2.461,1.219A3.163,3.163,0,0,0,59.2-3.457V-9.281a3.187,3.187,0,0,0-2.988-1.793,2.893,2.893,0,0,0-2.484,1.23A6.192,6.192,0,0,0,52.834-6.2ZM69.99.234a5.54,5.54,0,0,1-4.2-1.693,6.285,6.285,0,0,1-1.617-4.529v-.4A7.609,7.609,0,0,1,64.9-9.756a5.622,5.622,0,0,1,2.016-2.32,5.068,5.068,0,0,1,2.807-.838,4.749,4.749,0,0,1,3.844,1.629,7.053,7.053,0,0,1,1.371,4.664v.9h-8.59a4.507,4.507,0,0,0,1.1,3.029,3.444,3.444,0,0,0,2.666,1.154A3.776,3.776,0,0,0,72.053-2a4.888,4.888,0,0,0,1.395-1.242l1.324,1.031A5.325,5.325,0,0,1,69.99.234Zm-.27-11.367a2.892,2.892,0,0,0-2.2.955,4.642,4.642,0,0,0-1.1,2.678h6.352v-.164a4.129,4.129,0,0,0-.891-2.561A2.723,2.723,0,0,0,69.721-11.133ZM-57.627,36h-2.168V18h2.168Zm11.3,0a4.554,4.554,0,0,1-.3-1.336,4.837,4.837,0,0,1-3.609,1.57,4.476,4.476,0,0,1-3.076-1.061,3.431,3.431,0,0,1-1.2-2.689,3.584,3.584,0,0,1,1.506-3.076,7.1,7.1,0,0,1,4.236-1.1h2.109v-1a2.435,2.435,0,0,0-.68-1.811,2.732,2.732,0,0,0-2-.674,3.161,3.161,0,0,0-1.945.586,1.727,1.727,0,0,0-.785,1.418h-2.18A2.992,2.992,0,0,1-53.59,25a4.6,4.6,0,0,1,1.828-1.4,6.15,6.15,0,0,1,2.537-.516,5.013,5.013,0,0,1,3.434,1.1A3.953,3.953,0,0,1-44.5,27.2v5.836a7.135,7.135,0,0,0,.445,2.777V36Zm-3.6-1.652a3.81,3.81,0,0,0,1.934-.527,3.19,3.19,0,0,0,1.324-1.371v-2.6h-1.7q-3.984,0-3.984,2.332a1.974,1.974,0,0,0,.68,1.594A2.612,2.612,0,0,0-49.928,34.348Zm16.8-11.027.059,1.406A4.683,4.683,0,0,1-29.3,23.086a3.625,3.625,0,0,1,3.621,2.039,4.8,4.8,0,0,1,1.646-1.477,4.863,4.863,0,0,1,2.4-.562q4.172,0,4.242,4.418V36h-2.168V27.633a2.911,2.911,0,0,0-.621-2.033,2.735,2.735,0,0,0-2.086-.674,2.875,2.875,0,0,0-2,.721,2.924,2.924,0,0,0-.926,1.939V36h-2.18V27.691q0-2.766-2.707-2.766a2.9,2.9,0,0,0-2.918,1.816V36h-2.168V23.32ZM-8.865,36.234a5.54,5.54,0,0,1-4.2-1.693,6.285,6.285,0,0,1-1.617-4.529v-.4a7.609,7.609,0,0,1,.721-3.369,5.622,5.622,0,0,1,2.016-2.32,5.068,5.068,0,0,1,2.807-.838,4.749,4.749,0,0,1,3.844,1.629A7.053,7.053,0,0,1-3.92,29.379v.9h-8.59a4.507,4.507,0,0,0,1.1,3.029,3.444,3.444,0,0,0,2.666,1.154A3.776,3.776,0,0,0-6.8,34a4.888,4.888,0,0,0,1.395-1.242l1.324,1.031A5.325,5.325,0,0,1-8.865,36.234Zm-.27-11.367a2.892,2.892,0,0,0-2.2.955,4.642,4.642,0,0,0-1.1,2.678h6.352v-.164a4.129,4.129,0,0,0-.891-2.561A2.723,2.723,0,0,0-9.135,24.867Zm7.2,4.688A7.428,7.428,0,0,1-.557,24.861a4.373,4.373,0,0,1,3.621-1.775,4.4,4.4,0,0,1,3.527,1.523V18H8.76V36H6.768l-.105-1.359a4.415,4.415,0,0,1-3.621,1.594,4.331,4.331,0,0,1-3.592-1.8,7.512,7.512,0,0,1-1.389-4.711ZM.229,29.8a5.624,5.624,0,0,0,.891,3.375A2.879,2.879,0,0,0,3.58,34.395a3.163,3.163,0,0,0,3.012-1.852V26.719A3.187,3.187,0,0,0,3.6,24.926a2.893,2.893,0,0,0-2.484,1.23A6.192,6.192,0,0,0,.229,29.8ZM14.479,36H12.311V23.32h2.168ZM12.135,19.957a1.294,1.294,0,0,1,.322-.891,1.21,1.21,0,0,1,.955-.363,1.229,1.229,0,0,1,.961.363,1.28,1.28,0,0,1,.328.891,1.238,1.238,0,0,1-.328.879,1.251,1.251,0,0,1-.961.352,1.232,1.232,0,0,1-.955-.352A1.251,1.251,0,0,1,12.135,19.957Zm10.9,14.508a3.123,3.123,0,0,0,2.027-.7A2.474,2.474,0,0,0,26.021,32h2.051a3.931,3.931,0,0,1-.75,2.074,4.94,4.94,0,0,1-1.846,1.57,5.326,5.326,0,0,1-2.443.586,5.223,5.223,0,0,1-4.119-1.729,6.884,6.884,0,0,1-1.529-4.729v-.363a7.634,7.634,0,0,1,.68-3.293,5.177,5.177,0,0,1,1.951-2.238,5.543,5.543,0,0,1,3.006-.8,5.085,5.085,0,0,1,3.545,1.277,4.565,4.565,0,0,1,1.506,3.316H26.021a2.988,2.988,0,0,0-.932-2.021,2.9,2.9,0,0,0-2.068-.791,3.034,3.034,0,0,0-2.561,1.189,5.586,5.586,0,0,0-.908,3.439v.41a5.475,5.475,0,0,0,.9,3.375A3.049,3.049,0,0,0,23.033,34.465ZM32.865,36H30.7V23.32h2.168ZM30.521,19.957a1.294,1.294,0,0,1,.322-.891A1.21,1.21,0,0,1,31.8,18.7a1.229,1.229,0,0,1,.961.363,1.28,1.28,0,0,1,.328.891,1.238,1.238,0,0,1-.328.879,1.251,1.251,0,0,1-.961.352,1.232,1.232,0,0,1-.955-.352A1.251,1.251,0,0,1,30.521,19.957Zm5.238,9.586a7.489,7.489,0,0,1,.732-3.352,5.464,5.464,0,0,1,2.039-2.3,5.551,5.551,0,0,1,2.982-.809A5.347,5.347,0,0,1,45.7,24.879a6.9,6.9,0,0,1,1.6,4.77V29.8a7.555,7.555,0,0,1-.709,3.322,5.383,5.383,0,0,1-2.027,2.291,5.614,5.614,0,0,1-3.029.82,5.334,5.334,0,0,1-4.178-1.793,6.863,6.863,0,0,1-1.6-4.746Zm2.18.258a5.424,5.424,0,0,0,.979,3.387,3.316,3.316,0,0,0,5.244-.018,5.932,5.932,0,0,0,.973-3.627,5.415,5.415,0,0,0-.99-3.381,3.148,3.148,0,0,0-2.631-1.295,3.113,3.113,0,0,0-2.59,1.277A5.888,5.888,0,0,0,37.939,29.8ZM42.5,18.023h2.625l-3.141,3.445-1.746-.006Zm9.574,5.3.07,1.594a4.621,4.621,0,0,1,3.8-1.828q4.02,0,4.055,4.535V36H57.826V27.609a2.919,2.919,0,0,0-.627-2.027,2.512,2.512,0,0,0-1.916-.656,3.129,3.129,0,0,0-1.852.563,3.82,3.82,0,0,0-1.242,1.477V36H50.021V23.32Z" transform="translate(756 1909.675)" fill="#12263f"/>
    <path id="Trazado_140140" data-name="Trazado 140140" d="M0,0V631.576H16.966" transform="translate(905 1415.875)" fill="none" stroke="#1b4733" stroke-width="3"/>
    <rect id="Rectángulo_35042" data-name="Rectángulo 35042" width="608" height="84" transform="translate(602 1331.675)" fill="#4cbb88"/>
    <rect id="Rectángulo_35043" data-name="Rectángulo 35043" width="608" height="84" transform="translate(602 1470.675)" fill="#ef9310"/>
    <rect id="Rectángulo_35045" data-name="Rectángulo 35045" width="608" height="84" transform="translate(602 1735.675)" fill="#f9d49f"/>
    <rect id="Rectángulo_35047" data-name="Rectángulo 35047" width="290" height="84" transform="translate(920 2001.675)" fill="#ebdd81"/>
    <path id="Trazado_140235" data-name="Trazado 140235" d="M-204.187-6.79h-2.5V0h-4.627V-19.2h7.554a8.432,8.432,0,0,1,5.339,1.514A5.132,5.132,0,0,1-196.5-13.4a6.232,6.232,0,0,1-.811,3.319,5.755,5.755,0,0,1-2.538,2.133L-195.842-.2V0H-200.8Zm-2.5-3.56h2.927a2.627,2.627,0,0,0,1.984-.694,2.682,2.682,0,0,0,.666-1.936,2.714,2.714,0,0,0-.672-1.949,2.6,2.6,0,0,0-1.978-.707h-2.927ZM-187.009.264a7.333,7.333,0,0,1-5.313-1.958,6.761,6.761,0,0,1-2.03-5.1v-.369a8.76,8.76,0,0,1,.811-3.863,5.933,5.933,0,0,1,2.366-2.591,7.144,7.144,0,0,1,3.691-.916,6.175,6.175,0,0,1,4.746,1.865,7.331,7.331,0,0,1,1.74,5.2v1.727h-8.833a3.2,3.2,0,0,0,1.042,1.885,3.1,3.1,0,0,0,2.083.686,3.993,3.993,0,0,0,3.3-1.477l2.03,2.4a5.675,5.675,0,0,1-2.353,1.826A7.952,7.952,0,0,1-187.009.264Zm-.5-11.364q-1.951,0-2.32,2.584h4.482v-.343a2.2,2.2,0,0,0-.541-1.655A2.151,2.151,0,0,0-187.51-11.1Zm21.542,4.074a8.6,8.6,0,0,1-1.5,5.306A4.8,4.8,0,0,1-171.505.264a4.112,4.112,0,0,1-3.23-1.437V5.484h-4.443V-14.265h4.153l.132,1.318a4.113,4.113,0,0,1,3.362-1.582,4.836,4.836,0,0,1,4.1,1.945,8.708,8.708,0,0,1,1.463,5.346Zm-4.443-.277q0-3.8-2.215-3.8a2.091,2.091,0,0,0-2.109,1.134v5.616A2.159,2.159,0,0,0-172.6-3.164q2.123,0,2.188-3.665Zm5.84.04a8.419,8.419,0,0,1,.831-3.8,5.94,5.94,0,0,1,2.386-2.564,7.187,7.187,0,0,1,3.652-.9,6.559,6.559,0,0,1,5.049,1.984,7.614,7.614,0,0,1,1.846,5.4v.158a7.387,7.387,0,0,1-1.852,5.293A6.576,6.576,0,0,1-157.676.264a6.651,6.651,0,0,1-4.891-1.826,7.142,7.142,0,0,1-1.991-4.95Zm4.443.277a5.308,5.308,0,0,0,.62,2.9,2.064,2.064,0,0,0,1.833.923q2.373,0,2.426-3.652v-.448q0-3.836-2.452-3.836-2.228,0-2.413,3.309Zm19.907-3.256-1.463-.105q-2.1,0-2.689,1.318V0h-4.443V-14.265h4.166l.145,1.833a3.44,3.44,0,0,1,3.125-2.1,4.333,4.333,0,0,1,1.239.158Zm7.436-7.567v3.546h2.347v3.085h-2.347v6.526a1.666,1.666,0,0,0,.29,1.121,1.556,1.556,0,0,0,1.147.316,6.518,6.518,0,0,0,1.107-.079V-.119a8.2,8.2,0,0,1-2.5.382,4.654,4.654,0,0,1-3.388-1.081A4.431,4.431,0,0,1-137.228-4.1v-7.08h-1.819v-3.085h1.819v-3.546Zm11,18.075A7.333,7.333,0,0,1-127.1-1.694a6.761,6.761,0,0,1-2.03-5.1v-.369a8.76,8.76,0,0,1,.811-3.863,5.933,5.933,0,0,1,2.366-2.591,7.144,7.144,0,0,1,3.691-.916,6.175,6.175,0,0,1,4.746,1.865,7.331,7.331,0,0,1,1.74,5.2v1.727h-8.833A3.2,3.2,0,0,0-123.57-3.85a3.1,3.1,0,0,0,2.083.686,3.993,3.993,0,0,0,3.3-1.477l2.03,2.4a5.675,5.675,0,0,1-2.353,1.826A7.952,7.952,0,0,1-121.79.264Zm-.5-11.364q-1.951,0-2.32,2.584h4.482v-.343a2.2,2.2,0,0,0-.541-1.655A2.151,2.151,0,0,0-122.291-11.1Zm14.462,3.863a8.714,8.714,0,0,1,1.463-5.339,4.817,4.817,0,0,1,4.087-1.951,4.1,4.1,0,0,1,3.217,1.5V-20.25h4.456V0H-98.6l-.224-1.529A4.207,4.207,0,0,1-102.3.264a4.808,4.808,0,0,1-4.034-1.951A8.99,8.99,0,0,1-107.829-7.238Zm4.443.277q0,3.8,2.215,3.8A2.187,2.187,0,0,0-99.062-4.4V-9.835a2.128,2.128,0,0,0-2.083-1.266q-2.057,0-2.228,3.322ZM-85.179.264a7.333,7.333,0,0,1-5.313-1.958,6.761,6.761,0,0,1-2.03-5.1v-.369a8.76,8.76,0,0,1,.811-3.863,5.933,5.933,0,0,1,2.366-2.591,7.144,7.144,0,0,1,3.691-.916,6.175,6.175,0,0,1,4.746,1.865,7.331,7.331,0,0,1,1.74,5.2v1.727H-88A3.2,3.2,0,0,0-86.959-3.85a3.1,3.1,0,0,0,2.083.686,3.993,3.993,0,0,0,3.3-1.477l2.03,2.4A5.675,5.675,0,0,1-81.9-.415,7.952,7.952,0,0,1-85.179.264Zm-.5-11.364q-1.951,0-2.32,2.584h4.482v-.343a2.2,2.2,0,0,0-.541-1.655A2.151,2.151,0,0,0-85.68-11.1Zm23.651.857-1.463-.105q-2.1,0-2.689,1.318V0h-4.443V-14.265h4.166l.145,1.833a3.44,3.44,0,0,1,3.125-2.1,4.333,4.333,0,0,1,1.239.158ZM-53.776.264a7.333,7.333,0,0,1-5.313-1.958,6.761,6.761,0,0,1-2.03-5.1v-.369a8.76,8.76,0,0,1,.811-3.863,5.933,5.933,0,0,1,2.366-2.591,7.144,7.144,0,0,1,3.691-.916A6.175,6.175,0,0,1-49.5-12.663a7.331,7.331,0,0,1,1.74,5.2v1.727H-56.6A3.2,3.2,0,0,0-55.556-3.85a3.1,3.1,0,0,0,2.083.686,3.993,3.993,0,0,0,3.3-1.477l2.03,2.4A5.675,5.675,0,0,1-50.5-.415,7.952,7.952,0,0,1-53.776.264Zm-.5-11.364q-1.951,0-2.32,2.584h4.482v-.343a2.2,2.2,0,0,0-.541-1.655A2.151,2.151,0,0,0-54.277-11.1Zm15.768,7.093a1.026,1.026,0,0,0-.593-.91,9.024,9.024,0,0,0-2.254-.712A10.28,10.28,0,0,1-44.1-6.6a4.593,4.593,0,0,1-1.648-1.457,3.479,3.479,0,0,1-.567-1.964,3.943,3.943,0,0,1,1.622-3.237,6.68,6.68,0,0,1,4.245-1.272,7.4,7.4,0,0,1,4.535,1.279A4,4,0,0,1-34.2-9.888h-4.456q0-1.714-1.806-1.714a1.79,1.79,0,0,0-1.173.389,1.2,1.2,0,0,0-.475.969,1.105,1.105,0,0,0,.58.962,5.481,5.481,0,0,0,1.852.606,16.007,16.007,0,0,1,2.235.567Q-34.225-7-34.225-4.14A3.736,3.736,0,0,1-35.958-.962,7.6,7.6,0,0,1-40.447.264,7.758,7.758,0,0,1-43.717-.4a5.467,5.467,0,0,1-2.241-1.793,4.06,4.06,0,0,1-.8-2.386h4.153a1.717,1.717,0,0,0,.659,1.444,2.711,2.711,0,0,0,1.622.455,2.133,2.133,0,0,0,1.365-.369A1.181,1.181,0,0,0-38.509-4.008Zm14.858,2.465A4.581,4.581,0,0,1-27.461.264,4.492,4.492,0,0,1-31.014-1.1a5.739,5.739,0,0,1-1.206-3.922v-9.242h4.443V-5A1.6,1.6,0,0,0-26-3.164a2.322,2.322,0,0,0,2.175-1.094V-14.265h4.469V0H-23.52ZM-12.234,0H-16.69V-20.25h4.456Zm7.91-17.811v3.546h2.347v3.085H-4.324v6.526a1.666,1.666,0,0,0,.29,1.121,1.556,1.556,0,0,0,1.147.316A6.518,6.518,0,0,0-1.78-3.3V-.119a8.2,8.2,0,0,1-2.5.382A4.654,4.654,0,0,1-7.673-.817,4.431,4.431,0,0,1-8.767-4.1v-7.08h-1.819v-3.085h1.819v-3.546ZM7.8,0a5.016,5.016,0,0,1-.422-1.279A4.131,4.131,0,0,1,3.955.264,5.061,5.061,0,0,1,.527-.956,3.882,3.882,0,0,1-.883-4.021,3.989,3.989,0,0,1,.831-7.528,8.731,8.731,0,0,1,5.814-8.714H7.185V-9.47q0-1.974-1.7-1.974A1.39,1.39,0,0,0,3.9-9.88H-.541a3.983,3.983,0,0,1,1.76-3.358,7.4,7.4,0,0,1,4.489-1.29A6.485,6.485,0,0,1,10.02-13.2a4.629,4.629,0,0,1,1.622,3.652V-3.23a6.467,6.467,0,0,0,.606,3.006V0ZM5.023-2.9A2.478,2.478,0,0,0,6.4-3.256a2.231,2.231,0,0,0,.784-.8V-6.341H5.893q-2.32,0-2.32,2.083a1.272,1.272,0,0,0,.409.982A1.479,1.479,0,0,0,5.023-2.9ZM13.54-7.238A8.714,8.714,0,0,1,15-12.577a4.817,4.817,0,0,1,4.087-1.951,4.1,4.1,0,0,1,3.217,1.5V-20.25h4.456V0H22.768l-.224-1.529A4.207,4.207,0,0,1,19.063.264a4.808,4.808,0,0,1-4.034-1.951A8.99,8.99,0,0,1,13.54-7.238Zm4.443.277q0,3.8,2.215,3.8A2.187,2.187,0,0,0,22.307-4.4V-9.835A2.128,2.128,0,0,0,20.224-11.1Q18.167-11.1,18-7.778Zm10.745-.3a8.419,8.419,0,0,1,.831-3.8,5.94,5.94,0,0,1,2.386-2.564,7.187,7.187,0,0,1,3.652-.9,6.559,6.559,0,0,1,5.049,1.984,7.614,7.614,0,0,1,1.846,5.4v.158a7.387,7.387,0,0,1-1.852,5.293A6.576,6.576,0,0,1,35.622.264a6.651,6.651,0,0,1-4.891-1.826,7.142,7.142,0,0,1-1.991-4.95Zm4.443.277a5.308,5.308,0,0,0,.62,2.9,2.064,2.064,0,0,0,1.833.923q2.373,0,2.426-3.652v-.448q0-3.836-2.452-3.836-2.228,0-2.413,3.309ZM51.917-4.008a1.026,1.026,0,0,0-.593-.91,9.024,9.024,0,0,0-2.254-.712A10.28,10.28,0,0,1,46.327-6.6a4.593,4.593,0,0,1-1.648-1.457,3.479,3.479,0,0,1-.567-1.964,3.943,3.943,0,0,1,1.622-3.237,6.68,6.68,0,0,1,4.245-1.272,7.4,7.4,0,0,1,4.535,1.279,4,4,0,0,1,1.714,3.362H51.772q0-1.714-1.806-1.714a1.79,1.79,0,0,0-1.173.389,1.2,1.2,0,0,0-.475.969,1.105,1.105,0,0,0,.58.962,5.481,5.481,0,0,0,1.852.606,16.007,16.007,0,0,1,2.235.567Q56.2-7,56.2-4.14A3.736,3.736,0,0,1,54.468-.962,7.6,7.6,0,0,1,49.979.264,7.758,7.758,0,0,1,46.709-.4a5.467,5.467,0,0,1-2.241-1.793,4.06,4.06,0,0,1-.8-2.386h4.153a1.717,1.717,0,0,0,.659,1.444,2.711,2.711,0,0,0,1.622.455,2.133,2.133,0,0,0,1.365-.369A1.181,1.181,0,0,0,51.917-4.008Zm12.524-3.23A8.714,8.714,0,0,1,65.9-12.577a4.817,4.817,0,0,1,4.087-1.951,4.1,4.1,0,0,1,3.217,1.5V-20.25h4.456V0H73.67l-.224-1.529A4.207,4.207,0,0,1,69.965.264a4.808,4.808,0,0,1-4.034-1.951A8.99,8.99,0,0,1,64.441-7.238Zm4.443.277q0,3.8,2.215,3.8A2.187,2.187,0,0,0,73.208-4.4V-9.835A2.128,2.128,0,0,0,71.125-11.1q-2.057,0-2.228,3.322ZM87.091.264a7.333,7.333,0,0,1-5.313-1.958,6.761,6.761,0,0,1-2.03-5.1v-.369a8.76,8.76,0,0,1,.811-3.863,5.933,5.933,0,0,1,2.366-2.591,7.144,7.144,0,0,1,3.691-.916,6.175,6.175,0,0,1,4.746,1.865,7.331,7.331,0,0,1,1.74,5.2v1.727H84.27A3.2,3.2,0,0,0,85.311-3.85a3.1,3.1,0,0,0,2.083.686,3.993,3.993,0,0,0,3.3-1.477l2.03,2.4A5.675,5.675,0,0,1,90.367-.415,7.952,7.952,0,0,1,87.091.264ZM86.59-11.1q-1.951,0-2.32,2.584h4.482v-.343a2.2,2.2,0,0,0-.541-1.655A2.151,2.151,0,0,0,86.59-11.1Zm19.222-3.164.145,1.674a4.9,4.9,0,0,1,4.074-1.938,3.611,3.611,0,0,1,3.652,2.149,4.747,4.747,0,0,1,4.192-2.149q4.337,0,4.456,5.247V0h-4.456V-9a2.719,2.719,0,0,0-.369-1.6,1.571,1.571,0,0,0-1.345-.5A2.1,2.1,0,0,0,114.2-9.927l.013.185V0h-4.456V-8.978A2.858,2.858,0,0,0,109.4-10.6a1.567,1.567,0,0,0-1.358-.5,2.131,2.131,0,0,0-1.951,1.173V0h-4.443V-14.265ZM131.77.264a7.333,7.333,0,0,1-5.313-1.958,6.761,6.761,0,0,1-2.03-5.1v-.369a8.76,8.76,0,0,1,.811-3.863,5.933,5.933,0,0,1,2.366-2.591,7.144,7.144,0,0,1,3.691-.916,6.175,6.175,0,0,1,4.746,1.865,7.331,7.331,0,0,1,1.74,5.2v1.727h-8.833A3.2,3.2,0,0,0,129.99-3.85a3.1,3.1,0,0,0,2.083.686,3.993,3.993,0,0,0,3.3-1.477l2.03,2.4a5.675,5.675,0,0,1-2.353,1.826A7.952,7.952,0,0,1,131.77.264Zm-.5-11.364q-1.951,0-2.32,2.584h4.482v-.343a2.2,2.2,0,0,0-.541-1.655A2.151,2.151,0,0,0,131.269-11.1Zm7.739,3.863a8.714,8.714,0,0,1,1.463-5.339,4.817,4.817,0,0,1,4.087-1.951,4.1,4.1,0,0,1,3.217,1.5V-20.25h4.456V0h-3.995l-.224-1.529a4.207,4.207,0,0,1-3.48,1.793A4.808,4.808,0,0,1,140.5-1.687,8.99,8.99,0,0,1,139.008-7.238Zm4.443.277q0,3.8,2.215,3.8A2.187,2.187,0,0,0,147.775-4.4V-9.835a2.128,2.128,0,0,0-2.083-1.266q-2.057,0-2.228,3.322ZM159.442,0h-4.456V-14.265h4.456Zm-4.72-17.956a2,2,0,0,1,.686-1.565,2.577,2.577,0,0,1,1.78-.61,2.577,2.577,0,0,1,1.78.61,2,2,0,0,1,.686,1.565,2,2,0,0,1-.686,1.565,2.577,2.577,0,0,1-1.78.61,2.577,2.577,0,0,1-1.78-.61A2,2,0,0,1,154.723-17.956ZM168.209-3.164a1.976,1.976,0,0,0,1.45-.508,1.861,1.861,0,0,0,.5-1.417h4.166a4.932,4.932,0,0,1-1.681,3.85,6.252,6.252,0,0,1-4.331,1.5,6.331,6.331,0,0,1-4.9-1.951,7.688,7.688,0,0,1-1.793-5.405v-.185a8.689,8.689,0,0,1,.8-3.817,5.807,5.807,0,0,1,2.3-2.544,6.86,6.86,0,0,1,3.56-.89,6.174,6.174,0,0,1,4.417,1.542,5.471,5.471,0,0,1,1.635,4.179h-4.166a2.439,2.439,0,0,0-.541-1.7,1.866,1.866,0,0,0-1.45-.593q-1.727,0-2.017,2.2a15.535,15.535,0,0,0-.092,1.925,6.1,6.1,0,0,0,.514,2.979A1.78,1.78,0,0,0,168.209-3.164ZM180.892,0h-4.456V-14.265h4.456Zm-4.72-17.956a2,2,0,0,1,.686-1.565,2.577,2.577,0,0,1,1.78-.61,2.577,2.577,0,0,1,1.78.61,2,2,0,0,1,.686,1.565,2,2,0,0,1-.686,1.565,2.577,2.577,0,0,1-1.78.61,2.577,2.577,0,0,1-1.78-.61A2,2,0,0,1,176.172-17.956Zm6.9,10.692a8.419,8.419,0,0,1,.831-3.8,5.94,5.94,0,0,1,2.386-2.564,7.187,7.187,0,0,1,3.652-.9,6.559,6.559,0,0,1,5.049,1.984,7.614,7.614,0,0,1,1.846,5.4v.158a7.387,7.387,0,0,1-1.852,5.293A6.576,6.576,0,0,1,189.962.264a6.651,6.651,0,0,1-4.891-1.826,7.142,7.142,0,0,1-1.991-4.95Zm4.443.277a5.308,5.308,0,0,0,.62,2.9,2.064,2.064,0,0,0,1.833.923q2.373,0,2.426-3.652v-.448q0-3.836-2.452-3.836-2.228,0-2.413,3.309Zm3.032-13.263h4.693l-3.665,4.14-3.625-.007Zm12.327,5.985.145,1.674a4.837,4.837,0,0,1,4.074-1.938,4.07,4.07,0,0,1,3.329,1.332,6.339,6.339,0,0,1,1.14,4.008V0H207.1V-9a2.407,2.407,0,0,0-.435-1.589,2.013,2.013,0,0,0-1.582-.508,2.119,2.119,0,0,0-1.938,1.028V0H198.7V-14.265Z" transform="translate(903 1382.675)" fill="#fff"/>
    <path id="Trazado_140236" data-name="Trazado 140236" d="M-132.445-7.535h-7.16V0h-2.25V-17.062h10.57v1.84h-8.32v5.848h7.16Zm2.7,1.078a7.489,7.489,0,0,1,.732-3.352,5.464,5.464,0,0,1,2.039-2.3A5.551,5.551,0,0,1-124-12.914a5.347,5.347,0,0,1,4.189,1.793,6.9,6.9,0,0,1,1.6,4.77V-6.2a7.555,7.555,0,0,1-.709,3.322,5.383,5.383,0,0,1-2.027,2.291,5.614,5.614,0,0,1-3.029.82,5.334,5.334,0,0,1-4.178-1.793,6.863,6.863,0,0,1-1.6-4.746Zm2.18.258a5.424,5.424,0,0,0,.979,3.387,3.132,3.132,0,0,0,2.619,1.277,3.113,3.113,0,0,0,2.625-1.295,5.932,5.932,0,0,0,.973-3.627,5.415,5.415,0,0,0-.99-3.381A3.148,3.148,0,0,0-124-11.133a3.113,3.113,0,0,0-2.59,1.277A5.888,5.888,0,0,0-127.57-6.2Zm18.211-4.535a6.5,6.5,0,0,0-1.066-.082A2.857,2.857,0,0,0-113.32-9V0h-2.168V-12.68h2.109l.035,1.465a3.376,3.376,0,0,1,3.023-1.7,2.215,2.215,0,0,1,.961.164Zm4.031-1.945.059,1.406a4.683,4.683,0,0,1,3.762-1.641,3.625,3.625,0,0,1,3.621,2.039,4.8,4.8,0,0,1,1.646-1.477,4.863,4.863,0,0,1,2.4-.562q4.172,0,4.242,4.418V0H-91.77V-8.367a2.911,2.911,0,0,0-.621-2.033,2.735,2.735,0,0,0-2.086-.674,2.875,2.875,0,0,0-2,.721,2.924,2.924,0,0,0-.926,1.939V0h-2.18V-8.309q0-2.766-2.707-2.766a2.9,2.9,0,0,0-2.918,1.816V0h-2.168V-12.68ZM-78.5,0a4.554,4.554,0,0,1-.3-1.336A4.837,4.837,0,0,1-82.418.234,4.476,4.476,0,0,1-85.494-.826a3.431,3.431,0,0,1-1.2-2.689,3.584,3.584,0,0,1,1.506-3.076,7.1,7.1,0,0,1,4.236-1.1h2.109v-1a2.435,2.435,0,0,0-.68-1.811,2.732,2.732,0,0,0-2-.674,3.161,3.161,0,0,0-1.945.586,1.727,1.727,0,0,0-.785,1.418h-2.18A2.992,2.992,0,0,1-85.764-11a4.6,4.6,0,0,1,1.828-1.4,6.15,6.15,0,0,1,2.537-.516,5.013,5.013,0,0,1,3.434,1.1A3.953,3.953,0,0,1-76.676-8.8v5.836A7.135,7.135,0,0,0-76.23-.187V0Zm-3.6-1.652a3.81,3.81,0,0,0,1.934-.527,3.19,3.19,0,0,0,1.324-1.371v-2.6h-1.7q-3.984,0-3.984,2.332a1.974,1.974,0,0,0,.68,1.594A2.612,2.612,0,0,0-82.1-1.652Zm11.766-14.1v3.07h2.367V-11h-2.367v7.873a1.76,1.76,0,0,0,.316,1.144,1.332,1.332,0,0,0,1.078.381,5.249,5.249,0,0,0,1.031-.141V0a6.322,6.322,0,0,1-1.664.233,2.7,2.7,0,0,1-2.191-.879,3.776,3.776,0,0,1-.738-2.5V-11h-2.309V-12.68H-72.5v-3.07Zm4.09,9.293a7.489,7.489,0,0,1,.732-3.352,5.464,5.464,0,0,1,2.039-2.3,5.551,5.551,0,0,1,2.982-.809A5.347,5.347,0,0,1-56.3-11.121a6.9,6.9,0,0,1,1.6,4.77V-6.2a7.555,7.555,0,0,1-.709,3.322A5.383,5.383,0,0,1-57.439-.586a5.614,5.614,0,0,1-3.029.82,5.334,5.334,0,0,1-4.178-1.793,6.863,6.863,0,0,1-1.6-4.746Zm2.18.258a5.424,5.424,0,0,0,.979,3.387,3.132,3.132,0,0,0,2.619,1.277A3.113,3.113,0,0,0-57.844-2.83a5.932,5.932,0,0,0,.973-3.627,5.415,5.415,0,0,0-.99-3.381,3.148,3.148,0,0,0-2.631-1.295,3.113,3.113,0,0,0-2.59,1.277A5.888,5.888,0,0,0-64.066-6.2ZM-44.6-3.363a1.6,1.6,0,0,0-.662-1.365,6.373,6.373,0,0,0-2.309-.838,10.915,10.915,0,0,1-2.613-.844,3.718,3.718,0,0,1-1.43-1.172A2.8,2.8,0,0,1-52.078-9.2a3.289,3.289,0,0,1,1.318-2.637,5.149,5.149,0,0,1,3.369-1.078,5.3,5.3,0,0,1,3.5,1.113,3.536,3.536,0,0,1,1.342,2.848h-2.18a1.957,1.957,0,0,0-.756-1.535,2.832,2.832,0,0,0-1.9-.645,2.964,2.964,0,0,0-1.852.516A1.623,1.623,0,0,0-49.91-9.27a1.315,1.315,0,0,0,.621,1.184,7.642,7.642,0,0,0,2.244.762,11.693,11.693,0,0,1,2.631.867A3.838,3.838,0,0,1-42.92-5.244a2.982,2.982,0,0,1,.486,1.729A3.245,3.245,0,0,1-43.793-.791,5.7,5.7,0,0,1-47.32.234a6.385,6.385,0,0,1-2.7-.539A4.384,4.384,0,0,1-51.85-1.811,3.629,3.629,0,0,1-52.512-3.9h2.168a2.245,2.245,0,0,0,.873,1.729,3.387,3.387,0,0,0,2.15.639,3.5,3.5,0,0,0,1.975-.5A1.53,1.53,0,0,0-44.6-3.363ZM-22.957-6.2a7.592,7.592,0,0,1-1.324,4.664A4.244,4.244,0,0,1-27.867.234,4.65,4.65,0,0,1-31.5-1.23V4.875h-2.168V-12.68h1.98l.105,1.406a4.466,4.466,0,0,1,3.68-1.641,4.324,4.324,0,0,1,3.615,1.723A7.675,7.675,0,0,1-22.957-6.4Zm-2.168-.246a5.6,5.6,0,0,0-.914-3.387,2.945,2.945,0,0,0-2.508-1.242A3.187,3.187,0,0,0-31.5-9.328V-3.27a3.193,3.193,0,0,0,2.977,1.734,2.931,2.931,0,0,0,2.479-1.236A6.115,6.115,0,0,0-25.125-6.445ZM-12.375,0a4.554,4.554,0,0,1-.3-1.336A4.837,4.837,0,0,1-16.289.234,4.476,4.476,0,0,1-19.365-.826a3.431,3.431,0,0,1-1.2-2.689,3.584,3.584,0,0,1,1.506-3.076,7.1,7.1,0,0,1,4.236-1.1h2.109v-1a2.435,2.435,0,0,0-.68-1.811,2.732,2.732,0,0,0-2-.674,3.161,3.161,0,0,0-1.945.586,1.727,1.727,0,0,0-.785,1.418h-2.18A2.992,2.992,0,0,1-19.635-11a4.6,4.6,0,0,1,1.828-1.4,6.15,6.15,0,0,1,2.537-.516,5.013,5.013,0,0,1,3.434,1.1A3.953,3.953,0,0,1-10.547-8.8v5.836A7.135,7.135,0,0,0-10.1-.187V0Zm-3.6-1.652a3.81,3.81,0,0,0,1.934-.527,3.19,3.19,0,0,0,1.324-1.371v-2.6h-1.7q-3.984,0-3.984,2.332a1.974,1.974,0,0,0,.68,1.594A2.612,2.612,0,0,0-15.973-1.652ZM-1.02-10.734a6.5,6.5,0,0,0-1.066-.082A2.857,2.857,0,0,0-4.98-9V0H-7.148V-12.68h2.109L-5-11.215a3.376,3.376,0,0,1,3.023-1.7,2.215,2.215,0,0,1,.961.164ZM8.332,0a4.554,4.554,0,0,1-.3-1.336A4.837,4.837,0,0,1,4.418.234,4.476,4.476,0,0,1,1.342-.826a3.431,3.431,0,0,1-1.2-2.689A3.584,3.584,0,0,1,1.646-6.592a7.1,7.1,0,0,1,4.236-1.1H7.992v-1a2.435,2.435,0,0,0-.68-1.811,2.732,2.732,0,0,0-2-.674,3.161,3.161,0,0,0-1.945.586,1.727,1.727,0,0,0-.785,1.418H.4A2.992,2.992,0,0,1,1.072-11,4.6,4.6,0,0,1,2.9-12.4a6.15,6.15,0,0,1,2.537-.516,5.013,5.013,0,0,1,3.434,1.1A3.953,3.953,0,0,1,10.16-8.8v5.836a7.135,7.135,0,0,0,.445,2.777V0Zm-3.6-1.652A3.81,3.81,0,0,0,6.668-2.18,3.19,3.19,0,0,0,7.992-3.551v-2.6h-1.7q-3.984,0-3.984,2.332a1.974,1.974,0,0,0,.68,1.594A2.612,2.612,0,0,0,4.734-1.652ZM24.762.234a5.54,5.54,0,0,1-4.2-1.693,6.285,6.285,0,0,1-1.617-4.529v-.4a7.609,7.609,0,0,1,.721-3.369,5.622,5.622,0,0,1,2.016-2.32,5.068,5.068,0,0,1,2.807-.838,4.749,4.749,0,0,1,3.844,1.629,7.053,7.053,0,0,1,1.371,4.664v.9h-8.59a4.507,4.507,0,0,0,1.1,3.029,3.444,3.444,0,0,0,2.666,1.154A3.776,3.776,0,0,0,26.824-2a4.888,4.888,0,0,0,1.395-1.242l1.324,1.031A5.325,5.325,0,0,1,24.762.234Zm-.27-11.367a2.892,2.892,0,0,0-2.2.955,4.642,4.642,0,0,0-1.1,2.678h6.352v-.164a4.129,4.129,0,0,0-.891-2.561A2.723,2.723,0,0,0,24.492-11.133ZM34.57,0H32.4V-18H34.57ZM46.02-12.68l.059,1.406a4.683,4.683,0,0,1,3.762-1.641,3.625,3.625,0,0,1,3.621,2.039,4.8,4.8,0,0,1,1.646-1.477,4.863,4.863,0,0,1,2.4-.562q4.172,0,4.242,4.418V0H59.578V-8.367a2.911,2.911,0,0,0-.621-2.033,2.735,2.735,0,0,0-2.086-.674,2.875,2.875,0,0,0-2,.721,2.924,2.924,0,0,0-.926,1.939V0h-2.18V-8.309q0-2.766-2.707-2.766a2.9,2.9,0,0,0-2.918,1.816V0H43.969V-12.68ZM72.844-1.254A4.6,4.6,0,0,1,69.129.234,3.942,3.942,0,0,1,66.041-.943,5.1,5.1,0,0,1,64.969-4.43v-8.25h2.168v8.191q0,2.883,2.344,2.883a3.245,3.245,0,0,0,3.3-1.852V-12.68h2.168V0H72.891ZM83.508.234a5.54,5.54,0,0,1-4.2-1.693A6.285,6.285,0,0,1,77.7-5.988v-.4a7.609,7.609,0,0,1,.721-3.369,5.622,5.622,0,0,1,2.016-2.32,5.068,5.068,0,0,1,2.807-.838,4.749,4.749,0,0,1,3.844,1.629,7.053,7.053,0,0,1,1.371,4.664v.9h-8.59a4.507,4.507,0,0,0,1.1,3.029,3.444,3.444,0,0,0,2.666,1.154A3.776,3.776,0,0,0,85.57-2a4.888,4.888,0,0,0,1.395-1.242l1.324,1.031A5.325,5.325,0,0,1,83.508.234Zm-.27-11.367a2.892,2.892,0,0,0-2.2.955,4.642,4.642,0,0,0-1.1,2.678h6.352v-.164a4.129,4.129,0,0,0-.891-2.561A2.723,2.723,0,0,0,83.238-11.133Zm15.105,7.77a1.6,1.6,0,0,0-.662-1.365,6.373,6.373,0,0,0-2.309-.838A10.915,10.915,0,0,1,92.76-6.41a3.718,3.718,0,0,1-1.43-1.172A2.8,2.8,0,0,1,90.867-9.2a3.289,3.289,0,0,1,1.318-2.637,5.149,5.149,0,0,1,3.369-1.078,5.3,5.3,0,0,1,3.5,1.113,3.536,3.536,0,0,1,1.342,2.848h-2.18a1.957,1.957,0,0,0-.756-1.535,2.832,2.832,0,0,0-1.9-.645,2.964,2.964,0,0,0-1.852.516,1.623,1.623,0,0,0-.668,1.348,1.315,1.315,0,0,0,.621,1.184,7.642,7.642,0,0,0,2.244.762,11.693,11.693,0,0,1,2.631.867,3.838,3.838,0,0,1,1.494,1.213,2.982,2.982,0,0,1,.486,1.729A3.245,3.245,0,0,1,99.152-.791,5.7,5.7,0,0,1,95.625.234,6.385,6.385,0,0,1,92.93-.3,4.384,4.384,0,0,1,91.1-1.811,3.629,3.629,0,0,1,90.434-3.9H92.6a2.245,2.245,0,0,0,.873,1.729,3.387,3.387,0,0,0,2.15.639,3.5,3.5,0,0,0,1.975-.5A1.53,1.53,0,0,0,98.344-3.363Zm7.934-12.387v3.07h2.367V-11h-2.367v7.873a1.76,1.76,0,0,0,.316,1.144,1.332,1.332,0,0,0,1.078.381,5.249,5.249,0,0,0,1.031-.141V0a6.322,6.322,0,0,1-1.664.233,2.7,2.7,0,0,1-2.191-.879,3.776,3.776,0,0,1-.738-2.5V-11H101.8V-12.68h2.309v-3.07ZM117.3-10.734a6.5,6.5,0,0,0-1.066-.082A2.857,2.857,0,0,0,113.344-9V0h-2.168V-12.68h2.109l.035,1.465a3.376,3.376,0,0,1,3.023-1.7,2.215,2.215,0,0,1,.961.164ZM124.336.234a5.54,5.54,0,0,1-4.2-1.693,6.285,6.285,0,0,1-1.617-4.529v-.4a7.609,7.609,0,0,1,.721-3.369,5.622,5.622,0,0,1,2.016-2.32,5.068,5.068,0,0,1,2.807-.838,4.749,4.749,0,0,1,3.844,1.629,7.053,7.053,0,0,1,1.371,4.664v.9h-8.59a4.507,4.507,0,0,0,1.1,3.029,3.444,3.444,0,0,0,2.666,1.154A3.776,3.776,0,0,0,126.4-2a4.888,4.888,0,0,0,1.395-1.242l1.324,1.031A5.325,5.325,0,0,1,124.336.234Zm-.27-11.367a2.892,2.892,0,0,0-2.2.955,4.642,4.642,0,0,0-1.1,2.678h6.352v-.164a4.129,4.129,0,0,0-.891-2.561A2.723,2.723,0,0,0,124.066-11.133Zm7.148,4.676a7.489,7.489,0,0,1,.732-3.352,5.464,5.464,0,0,1,2.039-2.3,5.551,5.551,0,0,1,2.982-.809,5.347,5.347,0,0,1,4.189,1.793,6.9,6.9,0,0,1,1.6,4.77V-6.2a7.555,7.555,0,0,1-.709,3.322,5.383,5.383,0,0,1-2.027,2.291,5.614,5.614,0,0,1-3.029.82,5.334,5.334,0,0,1-4.178-1.793,6.863,6.863,0,0,1-1.6-4.746Zm2.18.258a5.424,5.424,0,0,0,.979,3.387,3.132,3.132,0,0,0,2.619,1.277,3.113,3.113,0,0,0,2.625-1.295,5.932,5.932,0,0,0,.973-3.627,5.415,5.415,0,0,0-.99-3.381,3.148,3.148,0,0,0-2.631-1.295,3.113,3.113,0,0,0-2.59,1.277A5.888,5.888,0,0,0,133.395-6.2Z" transform="translate(904 1521.675)" fill="#12263f"/>
    <path id="Trazado_140238" data-name="Trazado 140238" d="M-114.961-6.9h-4.008V0h-2.262V-17.062h5.648a6.686,6.686,0,0,1,4.436,1.313,4.722,4.722,0,0,1,1.553,3.82,4.593,4.593,0,0,1-.861,2.777,5.142,5.142,0,0,1-2.4,1.77l4.008,7.242V0h-2.414Zm-4.008-1.84h3.457a3.9,3.9,0,0,0,2.666-.869,2.938,2.938,0,0,0,.99-2.325,3.094,3.094,0,0,0-.943-2.43,4,4,0,0,0-2.725-.857h-3.445ZM-101.52.234a5.54,5.54,0,0,1-4.2-1.693,6.285,6.285,0,0,1-1.617-4.529v-.4a7.609,7.609,0,0,1,.721-3.369,5.622,5.622,0,0,1,2.016-2.32,5.068,5.068,0,0,1,2.807-.838,4.749,4.749,0,0,1,3.844,1.629,7.053,7.053,0,0,1,1.371,4.664v.9h-8.59a4.507,4.507,0,0,0,1.1,3.029A3.444,3.444,0,0,0-101.4-1.535,3.776,3.776,0,0,0-99.457-2a4.888,4.888,0,0,0,1.395-1.242l1.324,1.031A5.325,5.325,0,0,1-101.52.234Zm-.27-11.367a2.892,2.892,0,0,0-2.2.955,4.642,4.642,0,0,0-1.1,2.678h6.352v-.164a4.129,4.129,0,0,0-.891-2.561A2.723,2.723,0,0,0-101.789-11.133Zm7.207,4.688a7.452,7.452,0,0,1,1.371-4.717,4.385,4.385,0,0,1,3.633-1.752,4.362,4.362,0,0,1,3.621,1.641l.105-1.406h1.98V-.3A5.158,5.158,0,0,1-85.33,3.574a5.384,5.384,0,0,1-3.92,1.418,6.521,6.521,0,0,1-2.684-.586,4.62,4.62,0,0,1-2-1.605l1.125-1.3A4.239,4.239,0,0,0-89.4,3.223a3.322,3.322,0,0,0,2.467-.891,3.4,3.4,0,0,0,.885-2.508v-1.09A4.456,4.456,0,0,1-89.6.234a4.331,4.331,0,0,1-3.6-1.793A7.835,7.835,0,0,1-94.582-6.445Zm2.18.246a5.685,5.685,0,0,0,.879,3.369,2.856,2.856,0,0,0,2.461,1.225,3.176,3.176,0,0,0,3.012-1.863V-9.258a3.213,3.213,0,0,0-2.988-1.816,2.882,2.882,0,0,0-2.473,1.23A6.192,6.192,0,0,0-92.4-6.2ZM-78.246,0h-2.168V-12.68h2.168ZM-80.59-16.043a1.294,1.294,0,0,1,.322-.891,1.21,1.21,0,0,1,.955-.363,1.229,1.229,0,0,1,.961.363,1.28,1.28,0,0,1,.328.891,1.238,1.238,0,0,1-.328.879,1.251,1.251,0,0,1-.961.352,1.232,1.232,0,0,1-.955-.352A1.251,1.251,0,0,1-80.59-16.043Zm13.2,12.68a1.6,1.6,0,0,0-.662-1.365,6.373,6.373,0,0,0-2.309-.838,10.915,10.915,0,0,1-2.613-.844,3.718,3.718,0,0,1-1.43-1.172A2.8,2.8,0,0,1-74.871-9.2a3.289,3.289,0,0,1,1.318-2.637,5.149,5.149,0,0,1,3.369-1.078,5.3,5.3,0,0,1,3.5,1.113,3.536,3.536,0,0,1,1.342,2.848h-2.18a1.957,1.957,0,0,0-.756-1.535,2.832,2.832,0,0,0-1.9-.645,2.964,2.964,0,0,0-1.852.516A1.623,1.623,0,0,0-72.7-9.27a1.315,1.315,0,0,0,.621,1.184,7.642,7.642,0,0,0,2.244.762,11.693,11.693,0,0,1,2.631.867,3.838,3.838,0,0,1,1.494,1.213,2.982,2.982,0,0,1,.486,1.729A3.245,3.245,0,0,1-66.586-.791,5.7,5.7,0,0,1-70.113.234a6.385,6.385,0,0,1-2.7-.539,4.384,4.384,0,0,1-1.834-1.506A3.629,3.629,0,0,1-75.3-3.9h2.168a2.245,2.245,0,0,0,.873,1.729,3.387,3.387,0,0,0,2.15.639,3.5,3.5,0,0,0,1.975-.5A1.53,1.53,0,0,0-67.395-3.363Zm7.934-12.387v3.07h2.367V-11h-2.367v7.873a1.76,1.76,0,0,0,.316,1.144,1.332,1.332,0,0,0,1.078.381,5.249,5.249,0,0,0,1.031-.141V0A6.322,6.322,0,0,1-58.7.234a2.7,2.7,0,0,1-2.191-.879,3.776,3.776,0,0,1-.738-2.5V-11h-2.309V-12.68h2.309v-3.07Zm11.027,5.016a6.5,6.5,0,0,0-1.066-.082A2.857,2.857,0,0,0-52.395-9V0h-2.168V-12.68h2.109l.035,1.465a3.376,3.376,0,0,1,3.023-1.7,2.215,2.215,0,0,1,.961.164Zm1.184,4.277a7.489,7.489,0,0,1,.732-3.352,5.464,5.464,0,0,1,2.039-2.3,5.551,5.551,0,0,1,2.982-.809,5.347,5.347,0,0,1,4.189,1.793,6.9,6.9,0,0,1,1.6,4.77V-6.2a7.555,7.555,0,0,1-.709,3.322A5.383,5.383,0,0,1-38.443-.586a5.614,5.614,0,0,1-3.029.82A5.334,5.334,0,0,1-45.65-1.559,6.863,6.863,0,0,1-47.25-6.3Zm2.18.258a5.424,5.424,0,0,0,.979,3.387,3.132,3.132,0,0,0,2.619,1.277A3.113,3.113,0,0,0-38.848-2.83a5.932,5.932,0,0,0,.973-3.627,5.415,5.415,0,0,0-.99-3.381A3.148,3.148,0,0,0-41.5-11.133a3.113,3.113,0,0,0-2.59,1.277A5.888,5.888,0,0,0-45.07-6.2Zm19.465,2.836a1.6,1.6,0,0,0-.662-1.365,6.373,6.373,0,0,0-2.309-.838,10.915,10.915,0,0,1-2.613-.844,3.718,3.718,0,0,1-1.43-1.172A2.8,2.8,0,0,1-33.082-9.2a3.289,3.289,0,0,1,1.318-2.637,5.149,5.149,0,0,1,3.369-1.078A5.3,5.3,0,0,1-24.9-11.8a3.536,3.536,0,0,1,1.342,2.848h-2.18a1.957,1.957,0,0,0-.756-1.535,2.832,2.832,0,0,0-1.9-.645,2.964,2.964,0,0,0-1.852.516,1.623,1.623,0,0,0-.668,1.348,1.315,1.315,0,0,0,.621,1.184,7.642,7.642,0,0,0,2.244.762,11.693,11.693,0,0,1,2.631.867,3.838,3.838,0,0,1,1.494,1.213,2.982,2.982,0,0,1,.486,1.729A3.245,3.245,0,0,1-24.8-.791,5.7,5.7,0,0,1-28.324.234,6.385,6.385,0,0,1-31.02-.3a4.384,4.384,0,0,1-1.834-1.506A3.629,3.629,0,0,1-33.516-3.9h2.168a2.245,2.245,0,0,0,.873,1.729,3.387,3.387,0,0,0,2.15.639,3.5,3.5,0,0,0,1.975-.5A1.53,1.53,0,0,0-25.605-3.363ZM-15.2-6.445a7.428,7.428,0,0,1,1.383-4.693A4.373,4.373,0,0,1-10.2-12.914a4.4,4.4,0,0,1,3.527,1.523V-18H-4.5V0H-6.492L-6.6-1.359A4.415,4.415,0,0,1-10.219.234a4.331,4.331,0,0,1-3.592-1.8A7.512,7.512,0,0,1-15.2-6.281Zm2.168.246a5.624,5.624,0,0,0,.891,3.375A2.879,2.879,0,0,0-9.68-1.605,3.163,3.163,0,0,0-6.668-3.457V-9.281a3.187,3.187,0,0,0-2.988-1.793,2.893,2.893,0,0,0-2.484,1.23A6.192,6.192,0,0,0-13.031-6.2ZM4.125.234A5.54,5.54,0,0,1-.07-1.459,6.285,6.285,0,0,1-1.687-5.988v-.4A7.609,7.609,0,0,1-.967-9.756a5.622,5.622,0,0,1,2.016-2.32,5.068,5.068,0,0,1,2.807-.838A4.749,4.749,0,0,1,7.7-11.285,7.053,7.053,0,0,1,9.07-6.621v.9H.48a4.507,4.507,0,0,0,1.1,3.029A3.444,3.444,0,0,0,4.242-1.535,3.776,3.776,0,0,0,6.188-2,4.888,4.888,0,0,0,7.582-3.246L8.906-2.215A5.325,5.325,0,0,1,4.125.234Zm-.27-11.367a2.892,2.892,0,0,0-2.2.955A4.642,4.642,0,0,0,.551-7.5H6.9v-.164a4.129,4.129,0,0,0-.891-2.561A2.723,2.723,0,0,0,3.855-11.133ZM13.934,0H11.766V-18h2.168ZM25.383-12.68l.059,1.406A4.683,4.683,0,0,1,29.2-12.914a3.625,3.625,0,0,1,3.621,2.039,4.8,4.8,0,0,1,1.646-1.477,4.863,4.863,0,0,1,2.4-.562q4.172,0,4.242,4.418V0H38.941V-8.367A2.911,2.911,0,0,0,38.32-10.4a2.735,2.735,0,0,0-2.086-.674,2.875,2.875,0,0,0-2,.721A2.924,2.924,0,0,0,33.3-8.414V0h-2.18V-8.309q0-2.766-2.707-2.766A2.9,2.9,0,0,0,25.5-9.258V0H23.332V-12.68ZM52.207-1.254A4.6,4.6,0,0,1,48.492.234,3.942,3.942,0,0,1,45.4-.943,5.1,5.1,0,0,1,44.332-4.43v-8.25H46.5v8.191q0,2.883,2.344,2.883a3.245,3.245,0,0,0,3.3-1.852V-12.68h2.168V0H52.254ZM62.871.234a5.54,5.54,0,0,1-4.2-1.693,6.285,6.285,0,0,1-1.617-4.529v-.4a7.609,7.609,0,0,1,.721-3.369,5.622,5.622,0,0,1,2.016-2.32,5.068,5.068,0,0,1,2.807-.838,4.749,4.749,0,0,1,3.844,1.629,7.053,7.053,0,0,1,1.371,4.664v.9h-8.59a4.507,4.507,0,0,0,1.1,3.029,3.444,3.444,0,0,0,2.666,1.154A3.776,3.776,0,0,0,64.934-2a4.888,4.888,0,0,0,1.395-1.242l1.324,1.031A5.325,5.325,0,0,1,62.871.234ZM62.6-11.133a2.892,2.892,0,0,0-2.2.955A4.642,4.642,0,0,0,59.3-7.5h6.352v-.164a4.129,4.129,0,0,0-.891-2.561A2.723,2.723,0,0,0,62.6-11.133Zm15.105,7.77a1.6,1.6,0,0,0-.662-1.365,6.373,6.373,0,0,0-2.309-.838,10.915,10.915,0,0,1-2.613-.844,3.718,3.718,0,0,1-1.43-1.172A2.8,2.8,0,0,1,70.23-9.2a3.289,3.289,0,0,1,1.318-2.637,5.149,5.149,0,0,1,3.369-1.078,5.3,5.3,0,0,1,3.5,1.113,3.536,3.536,0,0,1,1.342,2.848h-2.18a1.957,1.957,0,0,0-.756-1.535,2.832,2.832,0,0,0-1.9-.645,2.964,2.964,0,0,0-1.852.516A1.623,1.623,0,0,0,72.4-9.27a1.315,1.315,0,0,0,.621,1.184,7.642,7.642,0,0,0,2.244.762,11.693,11.693,0,0,1,2.631.867,3.838,3.838,0,0,1,1.494,1.213,2.982,2.982,0,0,1,.486,1.729A3.245,3.245,0,0,1,78.516-.791,5.7,5.7,0,0,1,74.988.234a6.385,6.385,0,0,1-2.7-.539,4.384,4.384,0,0,1-1.834-1.506A3.629,3.629,0,0,1,69.8-3.9h2.168a2.245,2.245,0,0,0,.873,1.729,3.387,3.387,0,0,0,2.15.639,3.5,3.5,0,0,0,1.975-.5A1.53,1.53,0,0,0,77.707-3.363ZM85.641-15.75v3.07h2.367V-11H85.641v7.873a1.76,1.76,0,0,0,.316,1.144,1.332,1.332,0,0,0,1.078.381,5.249,5.249,0,0,0,1.031-.141V0A6.322,6.322,0,0,1,86.4.234a2.7,2.7,0,0,1-2.191-.879,3.776,3.776,0,0,1-.738-2.5V-11H81.164V-12.68h2.309v-3.07Zm11.027,5.016a6.5,6.5,0,0,0-1.066-.082A2.857,2.857,0,0,0,92.707-9V0H90.539V-12.68h2.109l.035,1.465a3.376,3.376,0,0,1,3.023-1.7,2.215,2.215,0,0,1,.961.164ZM103.7.234a5.54,5.54,0,0,1-4.2-1.693,6.285,6.285,0,0,1-1.617-4.529v-.4a7.609,7.609,0,0,1,.721-3.369,5.622,5.622,0,0,1,2.016-2.32,5.068,5.068,0,0,1,2.807-.838,4.749,4.749,0,0,1,3.844,1.629,7.053,7.053,0,0,1,1.371,4.664v.9h-8.59a4.507,4.507,0,0,0,1.1,3.029,3.444,3.444,0,0,0,2.666,1.154A3.776,3.776,0,0,0,105.762-2a4.888,4.888,0,0,0,1.395-1.242l1.324,1.031A5.325,5.325,0,0,1,103.7.234Zm-.27-11.367a2.892,2.892,0,0,0-2.2.955,4.642,4.642,0,0,0-1.1,2.678h6.352v-.164a4.129,4.129,0,0,0-.891-2.561A2.723,2.723,0,0,0,103.43-11.133Zm7.148,4.676a7.489,7.489,0,0,1,.732-3.352,5.464,5.464,0,0,1,2.039-2.3,5.551,5.551,0,0,1,2.982-.809,5.347,5.347,0,0,1,4.189,1.793,6.9,6.9,0,0,1,1.6,4.77V-6.2a7.555,7.555,0,0,1-.709,3.322,5.383,5.383,0,0,1-2.027,2.291,5.614,5.614,0,0,1-3.029.82,5.334,5.334,0,0,1-4.178-1.793,6.863,6.863,0,0,1-1.6-4.746Zm2.18.258a5.424,5.424,0,0,0,.979,3.387,3.132,3.132,0,0,0,2.619,1.277A3.113,3.113,0,0,0,118.98-2.83a5.932,5.932,0,0,0,.973-3.627,5.415,5.415,0,0,0-.99-3.381,3.148,3.148,0,0,0-2.631-1.295,3.113,3.113,0,0,0-2.59,1.277A5.888,5.888,0,0,0,112.758-6.2Z" transform="translate(875 1786.675)" fill="#12263f"/>
    <path id="Trazado_140240" data-name="Trazado 140240" d="M-111.9,0h-2.25V-17.062h2.25Zm5.824-12.68.07,1.594a4.621,4.621,0,0,1,3.8-1.828q4.02,0,4.055,4.535V0h-2.168V-8.391a2.919,2.919,0,0,0-.627-2.027,2.512,2.512,0,0,0-1.916-.656,3.129,3.129,0,0,0-1.852.563,3.82,3.82,0,0,0-1.242,1.477V0h-2.168V-12.68ZM-93.82,0V-11h-2V-12.68h2v-1.3a4.318,4.318,0,0,1,1.09-3.152,4.117,4.117,0,0,1,3.082-1.113,5.724,5.724,0,0,1,1.488.2l-.117,1.747a6.226,6.226,0,0,0-1.172-.105,2.115,2.115,0,0,0-1.629.617,2.5,2.5,0,0,0-.574,1.769v1.34h2.707V-11h-2.707V0Zm6.691-6.457A7.489,7.489,0,0,1-86.4-9.809a5.464,5.464,0,0,1,2.039-2.3,5.551,5.551,0,0,1,2.982-.809,5.347,5.347,0,0,1,4.189,1.793,6.9,6.9,0,0,1,1.6,4.77V-6.2a7.555,7.555,0,0,1-.709,3.322A5.383,5.383,0,0,1-78.322-.586a5.614,5.614,0,0,1-3.029.82,5.334,5.334,0,0,1-4.178-1.793,6.863,6.863,0,0,1-1.6-4.746Zm2.18.258a5.424,5.424,0,0,0,.979,3.387,3.132,3.132,0,0,0,2.619,1.277A3.113,3.113,0,0,0-78.727-2.83a5.932,5.932,0,0,0,.973-3.627,5.415,5.415,0,0,0-.99-3.381,3.148,3.148,0,0,0-2.631-1.295,3.113,3.113,0,0,0-2.59,1.277A5.888,5.888,0,0,0-84.949-6.2Zm18.211-4.535a6.5,6.5,0,0,0-1.066-.082A2.857,2.857,0,0,0-70.7-9V0h-2.168V-12.68h2.109l.035,1.465a3.376,3.376,0,0,1,3.023-1.7,2.215,2.215,0,0,1,.961.164Zm4.031-1.945.059,1.406a4.683,4.683,0,0,1,3.762-1.641,3.625,3.625,0,0,1,3.621,2.039,4.8,4.8,0,0,1,1.646-1.477,4.863,4.863,0,0,1,2.4-.562q4.172,0,4.242,4.418V0h-2.168V-8.367A2.911,2.911,0,0,0-49.77-10.4a2.735,2.735,0,0,0-2.086-.674,2.875,2.875,0,0,0-2,.721,2.924,2.924,0,0,0-.926,1.939V0h-2.18V-8.309q0-2.766-2.707-2.766A2.9,2.9,0,0,0-62.59-9.258V0h-2.168V-12.68ZM-38.449.234a5.54,5.54,0,0,1-4.2-1.693,6.285,6.285,0,0,1-1.617-4.529v-.4a7.609,7.609,0,0,1,.721-3.369,5.622,5.622,0,0,1,2.016-2.32,5.068,5.068,0,0,1,2.807-.838,4.749,4.749,0,0,1,3.844,1.629A7.053,7.053,0,0,1-33.5-6.621v.9h-8.59A4.507,4.507,0,0,0-41-2.689a3.444,3.444,0,0,0,2.666,1.154A3.776,3.776,0,0,0-36.387-2a4.888,4.888,0,0,0,1.395-1.242l1.324,1.031A5.325,5.325,0,0,1-38.449.234Zm-.27-11.367a2.892,2.892,0,0,0-2.2.955,4.642,4.642,0,0,0-1.1,2.678h6.352v-.164a4.129,4.129,0,0,0-.891-2.561A2.723,2.723,0,0,0-38.719-11.133Zm15.105,7.77a1.6,1.6,0,0,0-.662-1.365,6.373,6.373,0,0,0-2.309-.838A10.915,10.915,0,0,1-29.2-6.41a3.718,3.718,0,0,1-1.43-1.172A2.8,2.8,0,0,1-31.09-9.2a3.289,3.289,0,0,1,1.318-2.637A5.149,5.149,0,0,1-26.4-12.914,5.3,5.3,0,0,1-22.9-11.8a3.536,3.536,0,0,1,1.342,2.848h-2.18a1.957,1.957,0,0,0-.756-1.535,2.832,2.832,0,0,0-1.9-.645,2.964,2.964,0,0,0-1.852.516,1.623,1.623,0,0,0-.668,1.348A1.315,1.315,0,0,0-28.3-8.086a7.642,7.642,0,0,0,2.244.762,11.693,11.693,0,0,1,2.631.867,3.838,3.838,0,0,1,1.494,1.213,2.982,2.982,0,0,1,.486,1.729A3.245,3.245,0,0,1-22.8-.791,5.7,5.7,0,0,1-26.332.234a6.385,6.385,0,0,1-2.7-.539,4.384,4.384,0,0,1-1.834-1.506A3.629,3.629,0,0,1-31.523-3.9h2.168a2.245,2.245,0,0,0,.873,1.729,3.387,3.387,0,0,0,2.15.639,3.5,3.5,0,0,0,1.975-.5A1.53,1.53,0,0,0-23.613-3.363Zm10.406-3.082a7.428,7.428,0,0,1,1.383-4.693A4.373,4.373,0,0,1-8.2-12.914a4.4,4.4,0,0,1,3.527,1.523V-18h2.168V0H-4.5l-.105-1.359A4.415,4.415,0,0,1-8.227.234a4.331,4.331,0,0,1-3.592-1.8,7.512,7.512,0,0,1-1.389-4.711Zm2.168.246a5.624,5.624,0,0,0,.891,3.375A2.879,2.879,0,0,0-7.687-1.605,3.163,3.163,0,0,0-4.676-3.457V-9.281a3.187,3.187,0,0,0-2.988-1.793,2.893,2.893,0,0,0-2.484,1.23A6.192,6.192,0,0,0-11.039-6.2ZM6.117.234a5.54,5.54,0,0,1-4.2-1.693A6.285,6.285,0,0,1,.3-5.988v-.4a7.609,7.609,0,0,1,.721-3.369,5.622,5.622,0,0,1,2.016-2.32,5.068,5.068,0,0,1,2.807-.838,4.749,4.749,0,0,1,3.844,1.629,7.053,7.053,0,0,1,1.371,4.664v.9H2.473a4.507,4.507,0,0,0,1.1,3.029A3.444,3.444,0,0,0,6.234-1.535,3.776,3.776,0,0,0,8.18-2,4.888,4.888,0,0,0,9.574-3.246L10.9-2.215A5.325,5.325,0,0,1,6.117.234Zm-.27-11.367a2.892,2.892,0,0,0-2.2.955A4.642,4.642,0,0,0,2.543-7.5H8.895v-.164A4.129,4.129,0,0,0,8-10.225,2.723,2.723,0,0,0,5.848-11.133Zm15.7-1.547.059,1.406a4.683,4.683,0,0,1,3.762-1.641,3.625,3.625,0,0,1,3.621,2.039,4.8,4.8,0,0,1,1.646-1.477,4.863,4.863,0,0,1,2.4-.562q4.172,0,4.242,4.418V0H35.109V-8.367a2.911,2.911,0,0,0-.621-2.033,2.735,2.735,0,0,0-2.086-.674,2.875,2.875,0,0,0-2,.721,2.924,2.924,0,0,0-.926,1.939V0h-2.18V-8.309q0-2.766-2.707-2.766a2.9,2.9,0,0,0-2.918,1.816V0H19.5V-12.68ZM45.809.234a5.54,5.54,0,0,1-4.2-1.693A6.285,6.285,0,0,1,40-5.988v-.4a7.609,7.609,0,0,1,.721-3.369,5.622,5.622,0,0,1,2.016-2.32,5.068,5.068,0,0,1,2.807-.838,4.749,4.749,0,0,1,3.844,1.629,7.053,7.053,0,0,1,1.371,4.664v.9h-8.59a4.507,4.507,0,0,0,1.1,3.029,3.444,3.444,0,0,0,2.666,1.154A3.776,3.776,0,0,0,47.871-2a4.888,4.888,0,0,0,1.395-1.242L50.59-2.215A5.325,5.325,0,0,1,45.809.234Zm-.27-11.367a2.892,2.892,0,0,0-2.2.955,4.642,4.642,0,0,0-1.1,2.678h6.352v-.164a4.129,4.129,0,0,0-.891-2.561A2.723,2.723,0,0,0,45.539-11.133Zm7.2,4.688a7.428,7.428,0,0,1,1.383-4.693,4.373,4.373,0,0,1,3.621-1.775,4.4,4.4,0,0,1,3.527,1.523V-18h2.168V0H61.441l-.105-1.359A4.415,4.415,0,0,1,57.715.234a4.331,4.331,0,0,1-3.592-1.8,7.512,7.512,0,0,1-1.389-4.711ZM54.9-6.2a5.624,5.624,0,0,0,.891,3.375,2.879,2.879,0,0,0,2.461,1.219,3.163,3.163,0,0,0,3.012-1.852V-9.281a3.187,3.187,0,0,0-2.988-1.793,2.893,2.893,0,0,0-2.484,1.23A6.192,6.192,0,0,0,54.9-6.2ZM69.152,0H66.984V-12.68h2.168ZM66.809-16.043a1.294,1.294,0,0,1,.322-.891,1.21,1.21,0,0,1,.955-.363,1.229,1.229,0,0,1,.961.363,1.28,1.28,0,0,1,.328.891,1.238,1.238,0,0,1-.328.879,1.251,1.251,0,0,1-.961.352,1.232,1.232,0,0,1-.955-.352A1.251,1.251,0,0,1,66.809-16.043Zm10.9,14.508a3.123,3.123,0,0,0,2.027-.7A2.474,2.474,0,0,0,80.7-4h2.051A3.931,3.931,0,0,1,82-1.922,4.94,4.94,0,0,1,80.15-.352a5.326,5.326,0,0,1-2.443.586,5.223,5.223,0,0,1-4.119-1.729,6.884,6.884,0,0,1-1.529-4.729v-.363a7.634,7.634,0,0,1,.68-3.293,5.177,5.177,0,0,1,1.951-2.238,5.543,5.543,0,0,1,3.006-.8,5.085,5.085,0,0,1,3.545,1.277A4.565,4.565,0,0,1,82.746-8.32H80.7a2.988,2.988,0,0,0-.932-2.021,2.9,2.9,0,0,0-2.068-.791,3.034,3.034,0,0,0-2.561,1.189A5.586,5.586,0,0,0,74.227-6.5v.41a5.475,5.475,0,0,0,.9,3.375A3.049,3.049,0,0,0,77.707-1.535ZM87.539,0H85.371V-12.68h2.168ZM85.2-16.043a1.294,1.294,0,0,1,.322-.891,1.21,1.21,0,0,1,.955-.363,1.229,1.229,0,0,1,.961.363,1.28,1.28,0,0,1,.328.891,1.238,1.238,0,0,1-.328.879,1.251,1.251,0,0,1-.961.352,1.232,1.232,0,0,1-.955-.352A1.251,1.251,0,0,1,85.2-16.043Zm5.238,9.586a7.489,7.489,0,0,1,.732-3.352,5.464,5.464,0,0,1,2.039-2.3,5.551,5.551,0,0,1,2.982-.809,5.347,5.347,0,0,1,4.189,1.793,6.9,6.9,0,0,1,1.6,4.77V-6.2a7.555,7.555,0,0,1-.709,3.322A5.383,5.383,0,0,1,99.24-.586a5.614,5.614,0,0,1-3.029.82,5.334,5.334,0,0,1-4.178-1.793,6.863,6.863,0,0,1-1.6-4.746Zm2.18.258a5.424,5.424,0,0,0,.979,3.387,3.132,3.132,0,0,0,2.619,1.277A3.113,3.113,0,0,0,98.836-2.83a5.932,5.932,0,0,0,.973-3.627,5.415,5.415,0,0,0-.99-3.381,3.148,3.148,0,0,0-2.631-1.295A3.113,3.113,0,0,0,93.6-9.855,5.888,5.888,0,0,0,92.613-6.2Zm4.559-11.777H99.8l-3.141,3.445-1.746-.006Zm9.574,5.3.07,1.594a4.621,4.621,0,0,1,3.8-1.828q4.02,0,4.055,4.535V0H112.5V-8.391a2.919,2.919,0,0,0-.627-2.027,2.512,2.512,0,0,0-1.916-.656,3.129,3.129,0,0,0-1.852.563,3.82,3.82,0,0,0-1.242,1.477V0H104.7V-12.68Z" transform="translate(1071 2051.675)" fill="#12263f"/>
    <path id="Trazado_140139" data-name="Trazado 140139" d="M-2963.5-9901.5h14.487" transform="translate(3853.25 11821.388)" fill="none" stroke="#1b4733" stroke-width="3"/>
    <path id="Trazado_140141" data-name="Trazado 140141" d="M-2963.5-9901.5h14.487" transform="translate(3853.25 11546.888)" fill="none" stroke="#1b4733" stroke-width="3"/>
  </g>
</svg>
